%TF.GenerationSoftware,KiCad,Pcbnew,5.1.10-88a1d61d58~88~ubuntu20.10.1*%
%TF.CreationDate,2021-06-25T22:13:37+02:00*%
%TF.ProjectId,juno-chorus-clone,6a756e6f-2d63-4686-9f72-75732d636c6f,3*%
%TF.SameCoordinates,Original*%
%TF.FileFunction,Copper,L2,Bot*%
%TF.FilePolarity,Positive*%
%FSLAX46Y46*%
G04 Gerber Fmt 4.6, Leading zero omitted, Abs format (unit mm)*
G04 Created by KiCad (PCBNEW 5.1.10-88a1d61d58~88~ubuntu20.10.1) date 2021-06-25 22:13:37*
%MOMM*%
%LPD*%
G01*
G04 APERTURE LIST*
%TA.AperFunction,NonConductor*%
%ADD10C,0.300000*%
%TD*%
%TA.AperFunction,ComponentPad*%
%ADD11R,1.905000X1.905000*%
%TD*%
%TA.AperFunction,ComponentPad*%
%ADD12C,1.905000*%
%TD*%
%TA.AperFunction,ComponentPad*%
%ADD13C,2.395220*%
%TD*%
%TA.AperFunction,ComponentPad*%
%ADD14R,2.240280X2.240280*%
%TD*%
%TA.AperFunction,ComponentPad*%
%ADD15C,2.240280*%
%TD*%
%TA.AperFunction,ComponentPad*%
%ADD16R,1.574800X2.286000*%
%TD*%
%TA.AperFunction,ComponentPad*%
%ADD17O,1.574800X2.286000*%
%TD*%
%TA.AperFunction,ComponentPad*%
%ADD18R,1.524000X1.524000*%
%TD*%
%TA.AperFunction,ComponentPad*%
%ADD19C,2.032000*%
%TD*%
%TA.AperFunction,ComponentPad*%
%ADD20O,3.500120X1.699260*%
%TD*%
%TA.AperFunction,ComponentPad*%
%ADD21C,4.064000*%
%TD*%
%TA.AperFunction,ViaPad*%
%ADD22C,1.905000*%
%TD*%
%TA.AperFunction,Conductor*%
%ADD23C,1.524000*%
%TD*%
%TA.AperFunction,Conductor*%
%ADD24C,1.016000*%
%TD*%
G04 APERTURE END LIST*
D10*
X204079928Y-143328571D02*
X203844071Y-143449523D01*
X203765452Y-143570476D01*
X203686833Y-143812380D01*
X203686833Y-144175238D01*
X203765452Y-144417142D01*
X203844071Y-144538095D01*
X204001309Y-144659047D01*
X204630261Y-144659047D01*
X204630261Y-142119047D01*
X204079928Y-142119047D01*
X203922690Y-142240000D01*
X203844071Y-142360952D01*
X203765452Y-142602857D01*
X203765452Y-142844761D01*
X203844071Y-143086666D01*
X203922690Y-143207619D01*
X204079928Y-143328571D01*
X204630261Y-143328571D01*
X202743404Y-144659047D02*
X202900642Y-144538095D01*
X202979261Y-144417142D01*
X203057880Y-144175238D01*
X203057880Y-143449523D01*
X202979261Y-143207619D01*
X202900642Y-143086666D01*
X202743404Y-142965714D01*
X202507547Y-142965714D01*
X202350309Y-143086666D01*
X202271690Y-143207619D01*
X202193071Y-143449523D01*
X202193071Y-144175238D01*
X202271690Y-144417142D01*
X202350309Y-144538095D01*
X202507547Y-144659047D01*
X202743404Y-144659047D01*
X201721357Y-142965714D02*
X201092404Y-142965714D01*
X201485500Y-142119047D02*
X201485500Y-144296190D01*
X201406880Y-144538095D01*
X201249642Y-144659047D01*
X201092404Y-144659047D01*
X200777928Y-142965714D02*
X200148976Y-142965714D01*
X200542071Y-142119047D02*
X200542071Y-144296190D01*
X200463452Y-144538095D01*
X200306214Y-144659047D01*
X200148976Y-144659047D01*
X199362785Y-144659047D02*
X199520023Y-144538095D01*
X199598642Y-144417142D01*
X199677261Y-144175238D01*
X199677261Y-143449523D01*
X199598642Y-143207619D01*
X199520023Y-143086666D01*
X199362785Y-142965714D01*
X199126928Y-142965714D01*
X198969690Y-143086666D01*
X198891071Y-143207619D01*
X198812452Y-143449523D01*
X198812452Y-144175238D01*
X198891071Y-144417142D01*
X198969690Y-144538095D01*
X199126928Y-144659047D01*
X199362785Y-144659047D01*
X198104880Y-144659047D02*
X198104880Y-142965714D01*
X198104880Y-143207619D02*
X198026261Y-143086666D01*
X197869023Y-142965714D01*
X197633166Y-142965714D01*
X197475928Y-143086666D01*
X197397309Y-143328571D01*
X197397309Y-144659047D01*
X197397309Y-143328571D02*
X197318690Y-143086666D01*
X197161452Y-142965714D01*
X196925595Y-142965714D01*
X196768357Y-143086666D01*
X196689738Y-143328571D01*
X196689738Y-144659047D01*
X203780571Y-147320000D02*
X203937809Y-147199047D01*
X204173666Y-147199047D01*
X204409523Y-147320000D01*
X204566761Y-147561904D01*
X204645380Y-147803809D01*
X204724000Y-148287619D01*
X204724000Y-148650476D01*
X204645380Y-149134285D01*
X204566761Y-149376190D01*
X204409523Y-149618095D01*
X204173666Y-149739047D01*
X204016428Y-149739047D01*
X203780571Y-149618095D01*
X203701952Y-149497142D01*
X203701952Y-148650476D01*
X204016428Y-148650476D01*
X202758523Y-149739047D02*
X202915761Y-149618095D01*
X202994380Y-149376190D01*
X202994380Y-147199047D01*
X202129571Y-149739047D02*
X202129571Y-148045714D01*
X202129571Y-147199047D02*
X202208190Y-147320000D01*
X202129571Y-147440952D01*
X202050952Y-147320000D01*
X202129571Y-147199047D01*
X202129571Y-147440952D01*
X200478571Y-147320000D02*
X200635809Y-147199047D01*
X200871666Y-147199047D01*
X201107523Y-147320000D01*
X201264761Y-147561904D01*
X201343380Y-147803809D01*
X201422000Y-148287619D01*
X201422000Y-148650476D01*
X201343380Y-149134285D01*
X201264761Y-149376190D01*
X201107523Y-149618095D01*
X200871666Y-149739047D01*
X200714428Y-149739047D01*
X200478571Y-149618095D01*
X200399952Y-149497142D01*
X200399952Y-148650476D01*
X200714428Y-148650476D01*
X199456523Y-149739047D02*
X199613761Y-149618095D01*
X199692380Y-149376190D01*
X199692380Y-147199047D01*
X198827571Y-149739047D02*
X198827571Y-148045714D01*
X198827571Y-147199047D02*
X198906190Y-147320000D01*
X198827571Y-147440952D01*
X198748952Y-147320000D01*
X198827571Y-147199047D01*
X198827571Y-147440952D01*
X197962761Y-147199047D02*
X198120000Y-147682857D01*
X197333809Y-149618095D02*
X197176571Y-149739047D01*
X196862095Y-149739047D01*
X196704857Y-149618095D01*
X196626238Y-149376190D01*
X196626238Y-149255238D01*
X196704857Y-149013333D01*
X196862095Y-148892380D01*
X197097952Y-148892380D01*
X197255190Y-148771428D01*
X197333809Y-148529523D01*
X197333809Y-148408571D01*
X197255190Y-148166666D01*
X197097952Y-148045714D01*
X196862095Y-148045714D01*
X196704857Y-148166666D01*
X194660761Y-149739047D02*
X194660761Y-147199047D01*
X194267666Y-147199047D01*
X194031809Y-147320000D01*
X193874571Y-147561904D01*
X193795952Y-147803809D01*
X193717333Y-148287619D01*
X193717333Y-148650476D01*
X193795952Y-149134285D01*
X193874571Y-149376190D01*
X194031809Y-149618095D01*
X194267666Y-149739047D01*
X194660761Y-149739047D01*
X193009761Y-149739047D02*
X193009761Y-147199047D01*
X191909095Y-148529523D02*
X191909095Y-149739047D01*
X192459428Y-147199047D02*
X191909095Y-148529523D01*
X191358761Y-147199047D01*
X198035333Y-152279047D02*
X198035333Y-154093333D01*
X198113952Y-154456190D01*
X198271190Y-154698095D01*
X198507047Y-154819047D01*
X198664285Y-154819047D01*
X196541571Y-153125714D02*
X196541571Y-154819047D01*
X197249142Y-153125714D02*
X197249142Y-154456190D01*
X197170523Y-154698095D01*
X197013285Y-154819047D01*
X196777428Y-154819047D01*
X196620190Y-154698095D01*
X196541571Y-154577142D01*
X195755380Y-153125714D02*
X195755380Y-154819047D01*
X195755380Y-153367619D02*
X195676761Y-153246666D01*
X195519523Y-153125714D01*
X195283666Y-153125714D01*
X195126428Y-153246666D01*
X195047809Y-153488571D01*
X195047809Y-154819047D01*
X194025761Y-154819047D02*
X194183000Y-154698095D01*
X194261619Y-154577142D01*
X194340238Y-154335238D01*
X194340238Y-153609523D01*
X194261619Y-153367619D01*
X194183000Y-153246666D01*
X194025761Y-153125714D01*
X193789904Y-153125714D01*
X193632666Y-153246666D01*
X193554047Y-153367619D01*
X193475428Y-153609523D01*
X193475428Y-154335238D01*
X193554047Y-154577142D01*
X193632666Y-154698095D01*
X193789904Y-154819047D01*
X194025761Y-154819047D01*
X190802380Y-154698095D02*
X190959619Y-154819047D01*
X191274095Y-154819047D01*
X191431333Y-154698095D01*
X191509952Y-154577142D01*
X191588571Y-154335238D01*
X191588571Y-153609523D01*
X191509952Y-153367619D01*
X191431333Y-153246666D01*
X191274095Y-153125714D01*
X190959619Y-153125714D01*
X190802380Y-153246666D01*
X190094809Y-154819047D02*
X190094809Y-152279047D01*
X189387238Y-154819047D02*
X189387238Y-153488571D01*
X189465857Y-153246666D01*
X189623095Y-153125714D01*
X189858952Y-153125714D01*
X190016190Y-153246666D01*
X190094809Y-153367619D01*
X188365190Y-154819047D02*
X188522428Y-154698095D01*
X188601047Y-154577142D01*
X188679666Y-154335238D01*
X188679666Y-153609523D01*
X188601047Y-153367619D01*
X188522428Y-153246666D01*
X188365190Y-153125714D01*
X188129333Y-153125714D01*
X187972095Y-153246666D01*
X187893476Y-153367619D01*
X187814857Y-153609523D01*
X187814857Y-154335238D01*
X187893476Y-154577142D01*
X187972095Y-154698095D01*
X188129333Y-154819047D01*
X188365190Y-154819047D01*
X187107285Y-154819047D02*
X187107285Y-153125714D01*
X187107285Y-153609523D02*
X187028666Y-153367619D01*
X186950047Y-153246666D01*
X186792809Y-153125714D01*
X186635571Y-153125714D01*
X185377666Y-153125714D02*
X185377666Y-154819047D01*
X186085238Y-153125714D02*
X186085238Y-154456190D01*
X186006619Y-154698095D01*
X185849380Y-154819047D01*
X185613523Y-154819047D01*
X185456285Y-154698095D01*
X185377666Y-154577142D01*
X184670095Y-154698095D02*
X184512857Y-154819047D01*
X184198380Y-154819047D01*
X184041142Y-154698095D01*
X183962523Y-154456190D01*
X183962523Y-154335238D01*
X184041142Y-154093333D01*
X184198380Y-153972380D01*
X184434238Y-153972380D01*
X184591476Y-153851428D01*
X184670095Y-153609523D01*
X184670095Y-153488571D01*
X184591476Y-153246666D01*
X184434238Y-153125714D01*
X184198380Y-153125714D01*
X184041142Y-153246666D01*
X182154285Y-153125714D02*
X181761190Y-154819047D01*
X181368095Y-153125714D01*
X180896380Y-152279047D02*
X179874333Y-152279047D01*
X180424666Y-153246666D01*
X180188809Y-153246666D01*
X180031571Y-153367619D01*
X179952952Y-153488571D01*
X179874333Y-153730476D01*
X179874333Y-154335238D01*
X179952952Y-154577142D01*
X180031571Y-154698095D01*
X180188809Y-154819047D01*
X180660523Y-154819047D01*
X180817761Y-154698095D01*
X180896380Y-154577142D01*
D11*
%TO.P,Q16,D*%
%TO.N,N-0000054*%
X186690000Y-100330000D03*
D12*
%TO.P,Q16,G*%
%TO.N,N-0000055*%
X189230000Y-100330000D03*
%TO.P,Q16,S*%
%TO.N,N-0000056*%
X189230000Y-97790000D03*
%TD*%
D11*
%TO.P,Q17,D*%
%TO.N,N-0000021*%
X186690000Y-146050000D03*
D12*
%TO.P,Q17,G*%
%TO.N,N-0000081*%
X189230000Y-146050000D03*
%TO.P,Q17,S*%
%TO.N,N-0000057*%
X189230000Y-143510000D03*
%TD*%
D11*
%TO.P,Q7,3*%
%TO.N,N-000008*%
X111760000Y-110490000D03*
D12*
%TO.P,Q7,2*%
%TO.N,N-0000014*%
X109220000Y-110490000D03*
%TO.P,Q7,1*%
%TO.N,N-0000010*%
X109220000Y-113030000D03*
%TD*%
D11*
%TO.P,Q13,3*%
%TO.N,N-0000066*%
X173990000Y-68580000D03*
D12*
%TO.P,Q13,2*%
%TO.N,N-0000061*%
X171450000Y-68580000D03*
%TO.P,Q13,1*%
%TO.N,-VAA*%
X171450000Y-71120000D03*
%TD*%
D11*
%TO.P,Q2,3*%
%TO.N,N-0000083*%
X92710000Y-151130000D03*
D12*
%TO.P,Q2,2*%
%TO.N,N-0000075*%
X90170000Y-151130000D03*
%TO.P,Q2,1*%
%TO.N,N-0000072*%
X90170000Y-153670000D03*
%TD*%
D11*
%TO.P,Q5,3*%
%TO.N,N-000005*%
X137160000Y-99060000D03*
D12*
%TO.P,Q5,2*%
%TO.N,N-0000014*%
X134620000Y-99060000D03*
%TO.P,Q5,1*%
%TO.N,N-0000011*%
X134620000Y-101600000D03*
%TD*%
D11*
%TO.P,Q6,3*%
%TO.N,N-0000093*%
X137160000Y-144780000D03*
D12*
%TO.P,Q6,2*%
%TO.N,N-0000074*%
X134620000Y-144780000D03*
%TO.P,Q6,1*%
%TO.N,N-0000095*%
X134620000Y-147320000D03*
%TD*%
D11*
%TO.P,Q9,3*%
%TO.N,N-000009*%
X143510000Y-105410000D03*
D12*
%TO.P,Q9,2*%
%TO.N,N-000004*%
X140970000Y-105410000D03*
%TO.P,Q9,1*%
%TO.N,N-0000011*%
X140970000Y-107950000D03*
%TD*%
D11*
%TO.P,Q10,3*%
%TO.N,N-0000085*%
X143510000Y-148590000D03*
D12*
%TO.P,Q10,2*%
%TO.N,N-0000092*%
X140970000Y-148590000D03*
%TO.P,Q10,1*%
%TO.N,N-0000095*%
X140970000Y-151130000D03*
%TD*%
D11*
%TO.P,Q1,3*%
%TO.N,N-0000012*%
X92710000Y-110490000D03*
D12*
%TO.P,Q1,2*%
%TO.N,N-0000015*%
X90170000Y-110490000D03*
%TO.P,Q1,1*%
%TO.N,N-0000024*%
X90170000Y-113030000D03*
%TD*%
D11*
%TO.P,Q18,3*%
%TO.N,N-0000029*%
X95250000Y-60960000D03*
D12*
%TO.P,Q18,2*%
%TO.N,-VAA*%
X97790000Y-60960000D03*
%TO.P,Q18,1*%
%TO.N,N-0000042*%
X97790000Y-58420000D03*
%TD*%
D11*
%TO.P,Q19,3*%
%TO.N,N-0000039*%
X109220000Y-64770000D03*
D12*
%TO.P,Q19,2*%
%TO.N,-VAA*%
X106680000Y-64770000D03*
%TO.P,Q19,1*%
%TO.N,N-0000064*%
X106680000Y-67310000D03*
%TD*%
D11*
%TO.P,Q14,3*%
%TO.N,N-0000052*%
X173990000Y-92710000D03*
D12*
%TO.P,Q14,2*%
%TO.N,-VAA*%
X171450000Y-92710000D03*
%TO.P,Q14,1*%
%TO.N,N-0000053*%
X171450000Y-95250000D03*
%TD*%
D11*
%TO.P,Q11,3*%
%TO.N,N-0000050*%
X163830000Y-87630000D03*
D12*
%TO.P,Q11,2*%
%TO.N,-VAA*%
X166370000Y-87630000D03*
%TO.P,Q11,1*%
%TO.N,N-0000041*%
X166370000Y-85090000D03*
%TD*%
D11*
%TO.P,Q12,3*%
%TO.N,N-0000023*%
X163830000Y-130810000D03*
D12*
%TO.P,Q12,2*%
%TO.N,-VAA*%
X166370000Y-130810000D03*
%TO.P,Q12,1*%
%TO.N,N-0000019*%
X166370000Y-128270000D03*
%TD*%
D11*
%TO.P,Q15,3*%
%TO.N,N-0000017*%
X173990000Y-135890000D03*
D12*
%TO.P,Q15,2*%
%TO.N,-VAA*%
X171450000Y-135890000D03*
%TO.P,Q15,1*%
%TO.N,N-0000018*%
X171450000Y-138430000D03*
%TD*%
D11*
%TO.P,Q3,3*%
%TO.N,N-0000015*%
X111760000Y-102870000D03*
D12*
%TO.P,Q3,2*%
%TO.N,N-0000013*%
X109220000Y-102870000D03*
%TO.P,Q3,1*%
%TO.N,VAA*%
X109220000Y-105410000D03*
%TD*%
D11*
%TO.P,Q4,3*%
%TO.N,N-0000075*%
X111760000Y-143510000D03*
D12*
%TO.P,Q4,2*%
%TO.N,N-0000069*%
X109220000Y-143510000D03*
%TO.P,Q4,1*%
%TO.N,VAA*%
X109220000Y-146050000D03*
%TD*%
D11*
%TO.P,Q8,3*%
%TO.N,N-0000089*%
X111760000Y-151130000D03*
D12*
%TO.P,Q8,2*%
%TO.N,N-0000074*%
X109220000Y-151130000D03*
%TO.P,Q8,1*%
%TO.N,N-0000068*%
X109220000Y-153670000D03*
%TD*%
D11*
%TO.P,P2,1*%
%TO.N,N-0000033*%
X80010000Y-58420000D03*
D12*
%TO.P,P2,2*%
%TO.N,GND*%
X77470000Y-58420000D03*
%TD*%
D11*
%TO.P,P1,1*%
%TO.N,N-00000102*%
X177800000Y-58420000D03*
D12*
%TO.P,P1,2*%
%TO.N,GND*%
X180340000Y-58420000D03*
%TD*%
D11*
%TO.P,SW1,1*%
%TO.N,N-0000062*%
X157480000Y-60960000D03*
D12*
%TO.P,SW1,2*%
%TO.N,VAA*%
X157480000Y-58420000D03*
%TD*%
D11*
%TO.P,P4,1*%
%TO.N,N-0000026*%
X203200000Y-125730000D03*
D12*
%TO.P,P4,2*%
%TO.N,GND*%
X203200000Y-123190000D03*
%TD*%
D11*
%TO.P,P3,1*%
%TO.N,N-0000028*%
X203200000Y-115570000D03*
D12*
%TO.P,P3,2*%
%TO.N,GND*%
X203200000Y-118110000D03*
%TD*%
D13*
%TO.P,RV1,2*%
%TO.N,N-00000100*%
X63500000Y-106680000D03*
D14*
%TO.P,RV1,1*%
%TO.N,N-00000103*%
X63500000Y-101600000D03*
D15*
%TO.P,RV1,3*%
%TO.N,N-0000098*%
X63500000Y-111760000D03*
%TD*%
D13*
%TO.P,RV5,2*%
%TO.N,N-0000037*%
X63500000Y-76200000D03*
D14*
%TO.P,RV5,1*%
%TO.N,N-0000038*%
X63500000Y-71120000D03*
D15*
%TO.P,RV5,3*%
%TO.N,GND*%
X63500000Y-81280000D03*
%TD*%
D13*
%TO.P,RV2,2*%
%TO.N,N-0000090*%
X63500000Y-137160000D03*
D14*
%TO.P,RV2,1*%
%TO.N,N-0000099*%
X63500000Y-132080000D03*
D15*
%TO.P,RV2,3*%
%TO.N,GND*%
X63500000Y-142240000D03*
%TD*%
D16*
%TO.P,U8,1*%
%TO.N,GND*%
X135890000Y-120650000D03*
D17*
%TO.P,U8,2*%
%TO.N,N-0000082*%
X133350000Y-120650000D03*
%TO.P,U8,3*%
%TO.N,N-0000095*%
X130810000Y-120650000D03*
%TO.P,U8,4*%
%TO.N,N-0000073*%
X128270000Y-120650000D03*
%TO.P,U8,5*%
%TO.N,N-0000088*%
X128270000Y-128270000D03*
%TO.P,U8,6*%
%TO.N,N/C*%
X130810000Y-128270000D03*
%TO.P,U8,7*%
%TO.N,N-0000086*%
X133350000Y-128270000D03*
%TO.P,U8,8*%
%TO.N,N-0000091*%
X135890000Y-128270000D03*
%TD*%
D16*
%TO.P,U10,1*%
%TO.N,N-0000031*%
X194310000Y-116840000D03*
D17*
%TO.P,U10,2*%
%TO.N,N-0000032*%
X191770000Y-116840000D03*
%TO.P,U10,3*%
%TO.N,GND*%
X189230000Y-116840000D03*
%TO.P,U10,4*%
%TO.N,-VAA*%
X186690000Y-116840000D03*
%TO.P,U10,5*%
%TO.N,GND*%
X186690000Y-124460000D03*
%TO.P,U10,6*%
%TO.N,N-0000025*%
X189230000Y-124460000D03*
%TO.P,U10,7*%
%TO.N,N-0000022*%
X191770000Y-124460000D03*
%TO.P,U10,8*%
%TO.N,VAA*%
X194310000Y-124460000D03*
%TD*%
D16*
%TO.P,U9,1*%
%TO.N,N-0000038*%
X81280000Y-72390000D03*
D17*
%TO.P,U9,2*%
X78740000Y-72390000D03*
%TO.P,U9,3*%
%TO.N,N-00000106*%
X76200000Y-72390000D03*
%TO.P,U9,4*%
%TO.N,-VAA*%
X73660000Y-72390000D03*
%TO.P,U9,5*%
%TO.N,N-0000037*%
X73660000Y-80010000D03*
%TO.P,U9,6*%
%TO.N,N-0000035*%
X76200000Y-80010000D03*
%TO.P,U9,7*%
%TO.N,N-0000034*%
X78740000Y-80010000D03*
%TO.P,U9,8*%
%TO.N,VAA*%
X81280000Y-80010000D03*
%TD*%
D16*
%TO.P,U5,1*%
%TO.N,GND*%
X107950000Y-80010000D03*
D17*
%TO.P,U5,2*%
%TO.N,N-000001*%
X105410000Y-80010000D03*
%TO.P,U5,3*%
%TO.N,N-0000047*%
X102870000Y-80010000D03*
%TO.P,U5,4*%
%TO.N,N-0000027*%
X100330000Y-80010000D03*
%TO.P,U5,5*%
%TO.N,N-0000011*%
X100330000Y-87630000D03*
%TO.P,U5,6*%
%TO.N,N-0000048*%
X102870000Y-87630000D03*
%TO.P,U5,7*%
%TO.N,N-0000046*%
X105410000Y-87630000D03*
%TO.P,U5,8*%
%TO.N,N-0000045*%
X107950000Y-87630000D03*
%TD*%
D16*
%TO.P,U6,1*%
%TO.N,GND*%
X135890000Y-76200000D03*
D17*
%TO.P,U6,2*%
%TO.N,N-000001*%
X133350000Y-76200000D03*
%TO.P,U6,3*%
%TO.N,N-0000011*%
X130810000Y-76200000D03*
%TO.P,U6,4*%
%TO.N,N-0000048*%
X128270000Y-76200000D03*
%TO.P,U6,5*%
%TO.N,N-000007*%
X128270000Y-83820000D03*
%TO.P,U6,6*%
%TO.N,N/C*%
X130810000Y-83820000D03*
%TO.P,U6,7*%
%TO.N,N-000003*%
X133350000Y-83820000D03*
%TO.P,U6,8*%
%TO.N,N-0000027*%
X135890000Y-83820000D03*
%TD*%
D16*
%TO.P,U7,1*%
%TO.N,GND*%
X107950000Y-124460000D03*
D17*
%TO.P,U7,2*%
%TO.N,N-0000082*%
X105410000Y-124460000D03*
%TO.P,U7,3*%
%TO.N,N-0000076*%
X102870000Y-124460000D03*
%TO.P,U7,4*%
%TO.N,N-0000091*%
X100330000Y-124460000D03*
%TO.P,U7,5*%
%TO.N,N-0000095*%
X100330000Y-132080000D03*
%TO.P,U7,6*%
%TO.N,N-0000073*%
X102870000Y-132080000D03*
%TO.P,U7,7*%
%TO.N,N-0000078*%
X105410000Y-132080000D03*
%TO.P,U7,8*%
%TO.N,N-0000077*%
X107950000Y-132080000D03*
%TD*%
D16*
%TO.P,U4,1*%
%TO.N,N-00000105*%
X82550000Y-102870000D03*
D17*
%TO.P,U4,2*%
X80010000Y-102870000D03*
%TO.P,U4,3*%
%TO.N,N-0000090*%
X77470000Y-102870000D03*
%TO.P,U4,4*%
%TO.N,-VAA*%
X74930000Y-102870000D03*
%TO.P,U4,5*%
%TO.N,GND*%
X74930000Y-110490000D03*
%TO.P,U4,6*%
%TO.N,N-0000071*%
X77470000Y-110490000D03*
%TO.P,U4,7*%
%TO.N,N-0000070*%
X80010000Y-110490000D03*
%TO.P,U4,8*%
%TO.N,VAA*%
X82550000Y-110490000D03*
%TD*%
D16*
%TO.P,U1,1*%
%TO.N,N-00000103*%
X82550000Y-133350000D03*
D17*
%TO.P,U1,2*%
%TO.N,GND*%
X80010000Y-133350000D03*
%TO.P,U1,3*%
%TO.N,N-00000108*%
X77470000Y-133350000D03*
%TO.P,U1,4*%
%TO.N,-VAA*%
X74930000Y-133350000D03*
%TO.P,U1,5*%
%TO.N,GND*%
X74930000Y-140970000D03*
%TO.P,U1,6*%
%TO.N,N-00000107*%
X77470000Y-140970000D03*
%TO.P,U1,7*%
%TO.N,N-0000099*%
X80010000Y-140970000D03*
%TO.P,U1,8*%
%TO.N,VAA*%
X82550000Y-140970000D03*
%TD*%
D18*
%TO.P,D2,2*%
%TO.N,N-00000102*%
X181610000Y-64770000D03*
D12*
%TO.P,D2,1*%
%TO.N,N-00000101*%
X181610000Y-72390000D03*
%TD*%
D18*
%TO.P,D3,2*%
%TO.N,N-0000012*%
X100330000Y-113030000D03*
D12*
%TO.P,D3,1*%
%TO.N,N-0000014*%
X100330000Y-105410000D03*
%TD*%
D18*
%TO.P,D5,2*%
%TO.N,N-0000067*%
X142240000Y-74930000D03*
D12*
%TO.P,D5,1*%
%TO.N,N-0000059*%
X149860000Y-74930000D03*
%TD*%
D18*
%TO.P,D6,2*%
%TO.N,N-0000061*%
X171450000Y-106680000D03*
D12*
%TO.P,D6,1*%
%TO.N,N-0000055*%
X179070000Y-106680000D03*
%TD*%
D18*
%TO.P,D7,2*%
%TO.N,N-0000061*%
X171450000Y-149860000D03*
D12*
%TO.P,D7,1*%
%TO.N,N-0000081*%
X179070000Y-149860000D03*
%TD*%
D18*
%TO.P,D4,2*%
%TO.N,N-0000083*%
X100330000Y-153670000D03*
D12*
%TO.P,D4,1*%
%TO.N,N-0000074*%
X100330000Y-146050000D03*
%TD*%
D18*
%TO.P,D1,2*%
%TO.N,N-00000104*%
X177800000Y-72390000D03*
D12*
%TO.P,D1,1*%
%TO.N,N-00000102*%
X177800000Y-64770000D03*
%TD*%
D11*
%TO.P,C1,1*%
%TO.N,N-00000104*%
X187960000Y-81280000D03*
D12*
%TO.P,C1,2*%
%TO.N,GND*%
X187960000Y-76200000D03*
%TD*%
D11*
%TO.P,C2,1*%
%TO.N,GND*%
X189230000Y-66040000D03*
D12*
%TO.P,C2,2*%
%TO.N,N-00000101*%
X189230000Y-60960000D03*
%TD*%
%TO.P,C6,1*%
%TO.N,N-000004*%
X134620000Y-110490000D03*
%TO.P,C6,2*%
%TO.N,N-0000011*%
X134620000Y-105410000D03*
%TD*%
%TO.P,C27,1*%
%TO.N,N-0000016*%
X160020000Y-143510000D03*
%TO.P,C27,2*%
%TO.N,N-0000018*%
X165100000Y-143510000D03*
%TD*%
%TO.P,C33,1*%
%TO.N,N-0000029*%
X100330000Y-63500000D03*
%TO.P,C33,2*%
%TO.N,GND*%
X100330000Y-68580000D03*
%TD*%
%TO.P,C5,1*%
%TO.N,N-0000099*%
X81280000Y-146050000D03*
%TO.P,C5,2*%
%TO.N,N-00000107*%
X76200000Y-146050000D03*
%TD*%
%TO.P,C32,1*%
%TO.N,N-0000036*%
X90170000Y-63500000D03*
%TO.P,C32,2*%
%TO.N,N-0000042*%
X90170000Y-58420000D03*
%TD*%
%TO.P,C34,1*%
%TO.N,N-0000040*%
X120650000Y-72390000D03*
%TO.P,C34,2*%
%TO.N,N-0000064*%
X115570000Y-72390000D03*
%TD*%
%TO.P,C35,1*%
%TO.N,N-0000039*%
X110490000Y-59690000D03*
%TO.P,C35,2*%
%TO.N,GND*%
X105410000Y-59690000D03*
%TD*%
%TO.P,C8,1*%
%TO.N,N-0000049*%
X92710000Y-71120000D03*
%TO.P,C8,2*%
%TO.N,N-0000064*%
X92710000Y-66040000D03*
%TD*%
%TO.P,C21,1*%
%TO.N,N-0000020*%
X157480000Y-125730000D03*
%TO.P,C21,2*%
%TO.N,N-0000019*%
X162560000Y-125730000D03*
%TD*%
%TO.P,C16,1*%
%TO.N,N-0000043*%
X148590000Y-86360000D03*
%TO.P,C16,2*%
%TO.N,GND*%
X148590000Y-81280000D03*
%TD*%
%TO.P,C29,1*%
%TO.N,N-0000017*%
X176530000Y-125730000D03*
%TO.P,C29,2*%
%TO.N,GND*%
X176530000Y-120650000D03*
%TD*%
%TO.P,C18,1*%
%TO.N,N-0000084*%
X147320000Y-128270000D03*
%TO.P,C18,2*%
%TO.N,GND*%
X147320000Y-123190000D03*
%TD*%
%TO.P,C25,1*%
%TO.N,N-0000023*%
X172720000Y-125730000D03*
%TO.P,C25,2*%
%TO.N,GND*%
X172720000Y-120650000D03*
%TD*%
%TO.P,C11,1*%
%TO.N,N-0000076*%
X102870000Y-120650000D03*
%TO.P,C11,2*%
%TO.N,GND*%
X107950000Y-120650000D03*
%TD*%
%TO.P,C9,1*%
%TO.N,N-0000080*%
X74930000Y-123190000D03*
%TO.P,C9,2*%
%TO.N,N-0000064*%
X69850000Y-123190000D03*
%TD*%
%TO.P,C10,1*%
%TO.N,N-0000047*%
X102870000Y-76200000D03*
%TO.P,C10,2*%
%TO.N,GND*%
X107950000Y-76200000D03*
%TD*%
%TO.P,C26,1*%
%TO.N,N-0000051*%
X160020000Y-100330000D03*
%TO.P,C26,2*%
%TO.N,N-0000053*%
X165100000Y-100330000D03*
%TD*%
%TO.P,C20,1*%
%TO.N,N-0000030*%
X158750000Y-82550000D03*
%TO.P,C20,2*%
%TO.N,N-0000041*%
X163830000Y-82550000D03*
%TD*%
%TO.P,C28,1*%
%TO.N,N-0000052*%
X182880000Y-92710000D03*
%TO.P,C28,2*%
%TO.N,GND*%
X182880000Y-87630000D03*
%TD*%
%TO.P,C24,1*%
%TO.N,N-0000050*%
X173990000Y-87630000D03*
%TO.P,C24,2*%
%TO.N,GND*%
X179070000Y-87630000D03*
%TD*%
%TO.P,C7,1*%
%TO.N,N-0000092*%
X134620000Y-156210000D03*
%TO.P,C7,2*%
%TO.N,N-0000095*%
X134620000Y-151130000D03*
%TD*%
D11*
%TO.P,C15,1*%
%TO.N,GND*%
X142240000Y-123190000D03*
D12*
%TO.P,C15,2*%
%TO.N,N-0000091*%
X142240000Y-125730000D03*
%TD*%
D11*
%TO.P,C12,1*%
%TO.N,GND*%
X135890000Y-71120000D03*
D12*
%TO.P,C12,2*%
%TO.N,N-0000011*%
X133350000Y-71120000D03*
%TD*%
D11*
%TO.P,C30,1*%
%TO.N,N-0000054*%
X171450000Y-102870000D03*
D12*
%TO.P,C30,2*%
%TO.N,N-0000053*%
X171450000Y-100330000D03*
%TD*%
D11*
%TO.P,C14,1*%
%TO.N,GND*%
X143510000Y-82550000D03*
D12*
%TO.P,C14,2*%
%TO.N,N-0000027*%
X143510000Y-85090000D03*
%TD*%
D11*
%TO.P,C13,1*%
%TO.N,GND*%
X135890000Y-115570000D03*
D12*
%TO.P,C13,2*%
%TO.N,N-0000095*%
X133350000Y-115570000D03*
%TD*%
D11*
%TO.P,C4,1*%
%TO.N,GND*%
X196850000Y-71120000D03*
D12*
%TO.P,C4,2*%
%TO.N,-VAA*%
X196850000Y-68580000D03*
%TD*%
D11*
%TO.P,C3,1*%
%TO.N,VAA*%
X196850000Y-90170000D03*
D12*
%TO.P,C3,2*%
%TO.N,GND*%
X196850000Y-87630000D03*
%TD*%
D11*
%TO.P,C31,1*%
%TO.N,N-0000021*%
X171450000Y-146050000D03*
D12*
%TO.P,C31,2*%
%TO.N,N-0000018*%
X171450000Y-143510000D03*
%TD*%
D11*
%TO.P,C19,1*%
%TO.N,N-0000033*%
X80010000Y-63500000D03*
D12*
%TO.P,C19,2*%
%TO.N,N-00000106*%
X80010000Y-66040000D03*
%TD*%
D11*
%TO.P,C23,1*%
%TO.N,N-0000065*%
X157480000Y-64770000D03*
D12*
%TO.P,C23,2*%
%TO.N,-VAA*%
X157480000Y-67310000D03*
%TD*%
D19*
%TO.P,RV4,1*%
%TO.N,N-0000087*%
X90170000Y-132080000D03*
%TO.P,RV4,2*%
%TO.N,N-0000079*%
X92710000Y-121920000D03*
%TO.P,RV4,3*%
%TO.N,N-0000094*%
X95250000Y-132080000D03*
%TD*%
%TO.P,RV3,1*%
%TO.N,N-000006*%
X90170000Y-91440000D03*
%TO.P,RV3,2*%
%TO.N,N-0000044*%
X92710000Y-81280000D03*
%TO.P,RV3,3*%
%TO.N,N-000002*%
X95250000Y-91440000D03*
%TD*%
D11*
%TO.P,C17,1*%
%TO.N,N-0000067*%
X146050000Y-69850000D03*
D12*
%TO.P,C17,2*%
%TO.N,-VAA*%
X148590000Y-69850000D03*
%TD*%
%TO.P,R59,1*%
%TO.N,N-0000023*%
X165100000Y-135890000D03*
%TO.P,R59,2*%
%TO.N,N-0000020*%
X157480000Y-135890000D03*
%TD*%
%TO.P,R40,1*%
%TO.N,-VAA*%
X148590000Y-154940000D03*
%TO.P,R40,2*%
%TO.N,N-0000095*%
X140970000Y-154940000D03*
%TD*%
%TO.P,R38,1*%
%TO.N,N-0000094*%
X95250000Y-137160000D03*
%TO.P,R38,2*%
%TO.N,N-0000095*%
X102870000Y-137160000D03*
%TD*%
%TO.P,R32,1*%
%TO.N,N-0000087*%
X95250000Y-140970000D03*
%TO.P,R32,2*%
%TO.N,GND*%
X102870000Y-140970000D03*
%TD*%
%TO.P,R34,1*%
%TO.N,N-0000080*%
X78740000Y-121920000D03*
%TO.P,R34,2*%
%TO.N,N-0000079*%
X86360000Y-121920000D03*
%TD*%
%TO.P,R36,1*%
%TO.N,N-0000080*%
X78740000Y-118110000D03*
%TO.P,R36,2*%
%TO.N,N-0000076*%
X86360000Y-118110000D03*
%TD*%
%TO.P,R74,1*%
%TO.N,N-0000021*%
X182880000Y-146050000D03*
%TO.P,R74,2*%
%TO.N,GND*%
X182880000Y-138430000D03*
%TD*%
%TO.P,R62,1*%
%TO.N,GND*%
X154940000Y-121920000D03*
%TO.P,R62,2*%
%TO.N,N-0000019*%
X162560000Y-121920000D03*
%TD*%
%TO.P,R72,1*%
%TO.N,N-0000018*%
X165100000Y-147320000D03*
%TO.P,R72,2*%
%TO.N,GND*%
X165100000Y-154940000D03*
%TD*%
%TO.P,R69,1*%
%TO.N,N-0000017*%
X176530000Y-153670000D03*
%TO.P,R69,2*%
%TO.N,N-0000016*%
X168910000Y-153670000D03*
%TD*%
%TO.P,R65,1*%
%TO.N,N-0000016*%
X157480000Y-139700000D03*
%TO.P,R65,2*%
%TO.N,N-0000019*%
X165100000Y-139700000D03*
%TD*%
%TO.P,R42,1*%
%TO.N,N-0000095*%
X125730000Y-132080000D03*
%TO.P,R42,2*%
%TO.N,N-0000086*%
X133350000Y-132080000D03*
%TD*%
%TO.P,R53,1*%
%TO.N,N-0000020*%
X154940000Y-135890000D03*
%TO.P,R53,2*%
%TO.N,N-0000084*%
X147320000Y-135890000D03*
%TD*%
%TO.P,R50,1*%
%TO.N,N-0000084*%
X151130000Y-130810000D03*
%TO.P,R50,2*%
%TO.N,GND*%
X151130000Y-123190000D03*
%TD*%
%TO.P,R46,1*%
%TO.N,N-0000078*%
X113030000Y-130810000D03*
%TO.P,R46,2*%
%TO.N,N-0000084*%
X120650000Y-130810000D03*
%TD*%
%TO.P,R45,1*%
%TO.N,N-0000077*%
X113030000Y-127000000D03*
%TO.P,R45,2*%
%TO.N,N-0000084*%
X120650000Y-127000000D03*
%TD*%
%TO.P,R84,1*%
%TO.N,N-0000022*%
X196850000Y-134620000D03*
%TO.P,R84,2*%
%TO.N,N-0000025*%
X189230000Y-134620000D03*
%TD*%
%TO.P,R79,1*%
%TO.N,N-0000025*%
X189230000Y-128270000D03*
%TO.P,R79,2*%
%TO.N,N-0000034*%
X181610000Y-128270000D03*
%TD*%
%TO.P,R80,1*%
%TO.N,N-0000025*%
X196850000Y-138430000D03*
%TO.P,R80,2*%
%TO.N,N-0000057*%
X189230000Y-138430000D03*
%TD*%
%TO.P,R87,1*%
%TO.N,N-0000026*%
X203200000Y-129540000D03*
%TO.P,R87,2*%
%TO.N,N-0000022*%
X195580000Y-129540000D03*
%TD*%
%TO.P,R11,1*%
%TO.N,N-000005*%
X140970000Y-99060000D03*
%TO.P,R11,2*%
%TO.N,N-0000060*%
X148590000Y-99060000D03*
%TD*%
%TO.P,R13,1*%
%TO.N,N-000005*%
X157480000Y-104140000D03*
%TO.P,R13,2*%
%TO.N,N-0000011*%
X149860000Y-104140000D03*
%TD*%
%TO.P,R14,1*%
%TO.N,N-0000093*%
X140970000Y-143510000D03*
%TO.P,R14,2*%
%TO.N,N-0000095*%
X148590000Y-143510000D03*
%TD*%
%TO.P,R47,1*%
%TO.N,N-0000062*%
X158750000Y-74930000D03*
%TO.P,R47,2*%
%TO.N,GND*%
X166370000Y-74930000D03*
%TD*%
%TO.P,R49,1*%
%TO.N,N-0000067*%
X166370000Y-71120000D03*
%TO.P,R49,2*%
%TO.N,N-0000062*%
X158750000Y-71120000D03*
%TD*%
%TO.P,R52,1*%
%TO.N,N-0000060*%
X152400000Y-60960000D03*
%TO.P,R52,2*%
%TO.N,N-0000059*%
X152400000Y-68580000D03*
%TD*%
%TO.P,R56,1*%
%TO.N,N-0000060*%
X142240000Y-62230000D03*
%TO.P,R56,2*%
%TO.N,N-0000067*%
X142240000Y-69850000D03*
%TD*%
%TO.P,R55,1*%
%TO.N,N-0000067*%
X139700000Y-58420000D03*
%TO.P,R55,2*%
%TO.N,VAA*%
X147320000Y-58420000D03*
%TD*%
%TO.P,R57,1*%
%TO.N,N-0000065*%
X162560000Y-59690000D03*
%TO.P,R57,2*%
%TO.N,N-0000067*%
X162560000Y-67310000D03*
%TD*%
%TO.P,R60,1*%
%TO.N,N-0000066*%
X173990000Y-63500000D03*
%TO.P,R60,2*%
%TO.N,N-0000065*%
X166370000Y-63500000D03*
%TD*%
%TO.P,R63,1*%
%TO.N,N-0000066*%
X179070000Y-78740000D03*
%TO.P,R63,2*%
%TO.N,-VAA*%
X171450000Y-78740000D03*
%TD*%
%TO.P,R66,1*%
%TO.N,VAA*%
X173990000Y-59690000D03*
%TO.P,R66,2*%
%TO.N,N-0000061*%
X166370000Y-59690000D03*
%TD*%
%TO.P,R12,1*%
%TO.N,N-0000093*%
X140970000Y-139700000D03*
%TO.P,R12,2*%
%TO.N,N-0000060*%
X148590000Y-139700000D03*
%TD*%
%TO.P,R5,1*%
%TO.N,N-0000024*%
X82550000Y-90170000D03*
%TO.P,R5,2*%
%TO.N,N-00000105*%
X82550000Y-97790000D03*
%TD*%
%TO.P,R6,1*%
%TO.N,N-0000072*%
X86360000Y-133350000D03*
%TO.P,R6,2*%
%TO.N,N-0000070*%
X86360000Y-125730000D03*
%TD*%
%TO.P,R10,1*%
%TO.N,N-0000072*%
X87630000Y-146050000D03*
%TO.P,R10,2*%
%TO.N,N-0000083*%
X95250000Y-146050000D03*
%TD*%
%TO.P,R30,1*%
%TO.N,N-0000088*%
X128270000Y-139700000D03*
%TO.P,R30,2*%
%TO.N,N-0000085*%
X135890000Y-139700000D03*
%TD*%
%TO.P,R28,1*%
%TO.N,N-0000095*%
X149860000Y-151130000D03*
%TO.P,R28,2*%
%TO.N,N-0000085*%
X157480000Y-151130000D03*
%TD*%
%TO.P,R21,1*%
%TO.N,N-0000074*%
X125730000Y-146050000D03*
%TO.P,R21,2*%
%TO.N,N-0000092*%
X125730000Y-153670000D03*
%TD*%
%TO.P,R26,1*%
%TO.N,N-0000069*%
X125730000Y-135890000D03*
%TO.P,R26,2*%
%TO.N,N-0000086*%
X133350000Y-135890000D03*
%TD*%
%TO.P,R8,1*%
%TO.N,N-0000075*%
X114300000Y-138430000D03*
%TO.P,R8,2*%
%TO.N,VAA*%
X106680000Y-138430000D03*
%TD*%
%TO.P,R23,1*%
%TO.N,N-0000089*%
X120650000Y-134620000D03*
%TO.P,R23,2*%
%TO.N,GND*%
X113030000Y-134620000D03*
%TD*%
%TO.P,R17,1*%
%TO.N,VAA*%
X116840000Y-143510000D03*
%TO.P,R17,2*%
%TO.N,N-0000089*%
X116840000Y-151130000D03*
%TD*%
%TO.P,R18,1*%
%TO.N,VAA*%
X104140000Y-146050000D03*
%TO.P,R18,2*%
%TO.N,N-0000068*%
X104140000Y-153670000D03*
%TD*%
%TO.P,R82,1*%
%TO.N,N-0000040*%
X128270000Y-69850000D03*
%TO.P,R82,2*%
%TO.N,N-0000042*%
X128270000Y-62230000D03*
%TD*%
%TO.P,R48,1*%
%TO.N,N-0000043*%
X152400000Y-88900000D03*
%TO.P,R48,2*%
%TO.N,GND*%
X152400000Y-81280000D03*
%TD*%
%TO.P,R44,1*%
%TO.N,N-0000046*%
X111760000Y-87630000D03*
%TO.P,R44,2*%
%TO.N,N-0000043*%
X119380000Y-87630000D03*
%TD*%
%TO.P,R43,1*%
%TO.N,N-0000045*%
X111760000Y-83820000D03*
%TO.P,R43,2*%
%TO.N,N-0000043*%
X119380000Y-83820000D03*
%TD*%
%TO.P,R83,1*%
%TO.N,N-0000031*%
X199390000Y-107950000D03*
%TO.P,R83,2*%
%TO.N,N-0000032*%
X191770000Y-107950000D03*
%TD*%
%TO.P,R77,1*%
%TO.N,N-0000032*%
X191770000Y-111760000D03*
%TO.P,R77,2*%
%TO.N,N-0000034*%
X184150000Y-111760000D03*
%TD*%
%TO.P,R78,1*%
%TO.N,N-0000032*%
X195580000Y-104140000D03*
%TO.P,R78,2*%
%TO.N,N-0000056*%
X195580000Y-96520000D03*
%TD*%
%TO.P,R86,1*%
%TO.N,N-0000028*%
X203200000Y-111760000D03*
%TO.P,R86,2*%
%TO.N,N-0000031*%
X195580000Y-111760000D03*
%TD*%
%TO.P,R81,1*%
%TO.N,VAA*%
X124460000Y-69850000D03*
%TO.P,R81,2*%
%TO.N,N-0000042*%
X124460000Y-62230000D03*
%TD*%
%TO.P,R88,1*%
%TO.N,N-0000064*%
X110490000Y-68580000D03*
%TO.P,R88,2*%
%TO.N,VAA*%
X118110000Y-68580000D03*
%TD*%
%TO.P,R85,1*%
%TO.N,N-0000039*%
X113030000Y-64770000D03*
%TO.P,R85,2*%
%TO.N,N-0000040*%
X120650000Y-64770000D03*
%TD*%
%TO.P,R51,1*%
%TO.N,N-0000030*%
X154940000Y-92710000D03*
%TO.P,R51,2*%
%TO.N,N-0000043*%
X147320000Y-92710000D03*
%TD*%
%TO.P,R76,1*%
%TO.N,N-0000029*%
X86360000Y-58420000D03*
%TO.P,R76,2*%
%TO.N,N-0000036*%
X86360000Y-66040000D03*
%TD*%
%TO.P,R75,1*%
%TO.N,N-0000036*%
X85090000Y-71120000D03*
%TO.P,R75,2*%
%TO.N,N-0000034*%
X85090000Y-78740000D03*
%TD*%
%TO.P,R70,1*%
%TO.N,N-0000034*%
X83820000Y-83820000D03*
%TO.P,R70,2*%
%TO.N,N-0000035*%
X76200000Y-83820000D03*
%TD*%
%TO.P,R67,1*%
%TO.N,N-0000035*%
X76200000Y-87630000D03*
%TO.P,R67,2*%
%TO.N,GND*%
X68580000Y-87630000D03*
%TD*%
%TO.P,R54,1*%
%TO.N,N-00000106*%
X68580000Y-73660000D03*
%TO.P,R54,2*%
%TO.N,GND*%
X68580000Y-81280000D03*
%TD*%
%TO.P,R24,1*%
%TO.N,N-0000071*%
X77470000Y-114300000D03*
%TO.P,R24,2*%
%TO.N,N-0000070*%
X85090000Y-114300000D03*
%TD*%
%TO.P,R19,1*%
%TO.N,N-00000105*%
X76200000Y-97790000D03*
%TO.P,R19,2*%
%TO.N,N-0000071*%
X68580000Y-97790000D03*
%TD*%
%TO.P,R1,1*%
%TO.N,N-00000108*%
X74930000Y-128270000D03*
%TO.P,R1,2*%
%TO.N,N-00000103*%
X82550000Y-128270000D03*
%TD*%
%TO.P,R3,1*%
%TO.N,N-00000108*%
X71120000Y-135890000D03*
%TO.P,R3,2*%
%TO.N,N-0000099*%
X71120000Y-143510000D03*
%TD*%
%TO.P,R4,1*%
%TO.N,N-00000100*%
X68580000Y-106680000D03*
%TO.P,R4,2*%
%TO.N,N-00000107*%
X68580000Y-114300000D03*
%TD*%
%TO.P,R39,1*%
%TO.N,-VAA*%
X148590000Y-111760000D03*
%TO.P,R39,2*%
%TO.N,N-0000011*%
X140970000Y-111760000D03*
%TD*%
%TO.P,R9,1*%
%TO.N,N-0000024*%
X87630000Y-105410000D03*
%TO.P,R9,2*%
%TO.N,N-0000012*%
X95250000Y-105410000D03*
%TD*%
%TO.P,R29,1*%
%TO.N,N-000007*%
X128270000Y-94615000D03*
%TO.P,R29,2*%
%TO.N,N-000009*%
X135890000Y-94615000D03*
%TD*%
%TO.P,R27,1*%
%TO.N,N-0000011*%
X149860000Y-107950000D03*
%TO.P,R27,2*%
%TO.N,N-000009*%
X157480000Y-107950000D03*
%TD*%
%TO.P,R20,1*%
%TO.N,N-0000014*%
X125730000Y-102870000D03*
%TO.P,R20,2*%
%TO.N,N-000004*%
X125730000Y-110490000D03*
%TD*%
%TO.P,R25,1*%
%TO.N,N-0000013*%
X125730000Y-91440000D03*
%TO.P,R25,2*%
%TO.N,N-000003*%
X133350000Y-91440000D03*
%TD*%
%TO.P,R7,1*%
%TO.N,N-0000015*%
X114300000Y-97790000D03*
%TO.P,R7,2*%
%TO.N,VAA*%
X106680000Y-97790000D03*
%TD*%
%TO.P,R22,1*%
%TO.N,N-000008*%
X111760000Y-91440000D03*
%TO.P,R22,2*%
%TO.N,GND*%
X119380000Y-91440000D03*
%TD*%
%TO.P,R15,1*%
%TO.N,VAA*%
X116840000Y-102870000D03*
%TO.P,R15,2*%
%TO.N,N-000008*%
X116840000Y-110490000D03*
%TD*%
%TO.P,R16,1*%
%TO.N,VAA*%
X104140000Y-105410000D03*
%TO.P,R16,2*%
%TO.N,N-0000010*%
X104140000Y-113030000D03*
%TD*%
%TO.P,R41,1*%
%TO.N,N-0000011*%
X125730000Y-87630000D03*
%TO.P,R41,2*%
%TO.N,N-000003*%
X133350000Y-87630000D03*
%TD*%
%TO.P,R2,1*%
%TO.N,N-0000098*%
X63500000Y-119380000D03*
%TO.P,R2,2*%
%TO.N,GND*%
X71120000Y-119380000D03*
%TD*%
%TO.P,R37,1*%
%TO.N,N-000002*%
X95250000Y-96520000D03*
%TO.P,R37,2*%
%TO.N,N-0000011*%
X102870000Y-96520000D03*
%TD*%
%TO.P,R31,1*%
%TO.N,N-000006*%
X95250000Y-100330000D03*
%TO.P,R31,2*%
%TO.N,GND*%
X102870000Y-100330000D03*
%TD*%
%TO.P,R33,1*%
%TO.N,N-0000049*%
X88900000Y-71120000D03*
%TO.P,R33,2*%
%TO.N,N-0000044*%
X88900000Y-78740000D03*
%TD*%
%TO.P,R35,1*%
%TO.N,N-0000049*%
X95250000Y-72390000D03*
%TO.P,R35,2*%
%TO.N,N-0000047*%
X102870000Y-72390000D03*
%TD*%
%TO.P,R73,1*%
%TO.N,N-0000054*%
X182880000Y-100330000D03*
%TO.P,R73,2*%
%TO.N,GND*%
X182880000Y-107950000D03*
%TD*%
%TO.P,R61,1*%
%TO.N,GND*%
X158750000Y-78740000D03*
%TO.P,R61,2*%
%TO.N,N-0000041*%
X166370000Y-78740000D03*
%TD*%
%TO.P,R71,1*%
%TO.N,N-0000053*%
X165100000Y-104140000D03*
%TO.P,R71,2*%
%TO.N,GND*%
X165100000Y-111760000D03*
%TD*%
%TO.P,R68,1*%
%TO.N,N-0000052*%
X176530000Y-110490000D03*
%TO.P,R68,2*%
%TO.N,N-0000051*%
X168910000Y-110490000D03*
%TD*%
%TO.P,R64,1*%
%TO.N,N-0000051*%
X157480000Y-96520000D03*
%TO.P,R64,2*%
%TO.N,N-0000041*%
X165100000Y-96520000D03*
%TD*%
%TO.P,R58,1*%
%TO.N,N-0000050*%
X165100000Y-92710000D03*
%TO.P,R58,2*%
%TO.N,N-0000030*%
X157480000Y-92710000D03*
%TD*%
D20*
%TO.P,U2,2*%
%TO.N,GND*%
X203200000Y-87630000D03*
%TO.P,U2,1*%
%TO.N,N-00000104*%
X203200000Y-85090000D03*
%TO.P,U2,3*%
%TO.N,VAA*%
X203200000Y-90170000D03*
%TD*%
%TO.P,U3,2*%
%TO.N,N-00000101*%
X203200000Y-68580000D03*
%TO.P,U3,1*%
%TO.N,GND*%
X203200000Y-66040000D03*
%TO.P,U3,3*%
%TO.N,-VAA*%
X203200000Y-71120000D03*
%TD*%
D21*
%TO.P,HOLE1,1*%
%TO.N,N/C*%
X59690000Y-59690000D03*
%TD*%
%TO.P,HOLE2,1*%
%TO.N,N/C*%
X59690000Y-153670000D03*
%TD*%
%TO.P,HOLE4,1*%
%TO.N,N/C*%
X201930000Y-59690000D03*
%TD*%
%TO.P,HOLE3,1*%
%TO.N,N/C*%
X201930000Y-153670000D03*
%TD*%
D22*
%TO.N,N-000001*%
X115925000Y-75369300D03*
%TO.N,N-0000027*%
X121032700Y-81340500D03*
%TO.N,N-0000060*%
X158467400Y-131899800D03*
%TO.N,N-0000061*%
X177030600Y-94834800D03*
%TO.N,N-0000067*%
X155326300Y-81598800D03*
%TO.N,N-0000069*%
X119787200Y-142373900D03*
X107090800Y-148502700D03*
%TO.N,N-0000084*%
X131101100Y-125285600D03*
%TO.N,N-0000091*%
X104301200Y-116848900D03*
%TO.N,VAA*%
X121859200Y-97323100D03*
%TD*%
D23*
%TO.N,-VAA*%
X196850000Y-68580000D02*
X198755000Y-68580000D01*
X201295000Y-71120000D02*
X203200000Y-71120000D01*
X198755000Y-68580000D02*
X201295000Y-71120000D01*
X74930000Y-102870000D02*
X74930000Y-100329700D01*
X167157600Y-130810000D02*
X166370000Y-130810000D01*
X168757000Y-129210600D02*
X167157600Y-130810000D01*
X168757000Y-124776000D02*
X168757000Y-129210600D01*
X155741000Y-111760000D02*
X168757000Y-124776000D01*
X148590000Y-111760000D02*
X155741000Y-111760000D01*
X71439700Y-96839400D02*
X74930000Y-100329700D01*
X71439700Y-74610300D02*
X71439700Y-96839400D01*
X73660000Y-72390000D02*
X71439700Y-74610300D01*
X171450000Y-78740000D02*
X171450000Y-71120000D01*
X158750000Y-67310000D02*
X157480000Y-67310000D01*
X161147400Y-69707400D02*
X158750000Y-67310000D01*
X163972600Y-69707400D02*
X161147400Y-69707400D01*
X164909900Y-68770100D02*
X163972600Y-69707400D01*
X167458300Y-68770100D02*
X164909900Y-68770100D01*
X169808200Y-71120000D02*
X167458300Y-68770100D01*
X171450000Y-71120000D02*
X169808200Y-71120000D01*
%TO.N,GND*%
X199390000Y-87630000D02*
X199390000Y-74930000D01*
X199390000Y-74930000D02*
X196850000Y-72390000D01*
X180340000Y-58420000D02*
X181866190Y-58420000D01*
X189358095Y-65911905D02*
X189230000Y-66040000D01*
X181866190Y-58420000D02*
X189358095Y-65911905D01*
X193675000Y-69215000D02*
X190500000Y-66040000D01*
X193040000Y-66040000D02*
X203200000Y-66040000D01*
X196850000Y-71120000D02*
X196850000Y-72390000D01*
X193040000Y-68580000D02*
X193675000Y-69215000D01*
X193675000Y-69215000D02*
X196850000Y-72390000D01*
X135890000Y-71120000D02*
X135890000Y-76200000D01*
X182880000Y-81280000D02*
X187960000Y-76200000D01*
X182880000Y-87630000D02*
X182880000Y-81280000D01*
X107950000Y-120650000D02*
X107950000Y-124460000D01*
X142240000Y-123190000D02*
X147320000Y-123190000D01*
X138074700Y-121374500D02*
X138074700Y-120650000D01*
X139890200Y-123190000D02*
X138074700Y-121374500D01*
X142240000Y-123190000D02*
X139890200Y-123190000D01*
X135890000Y-120650000D02*
X138074700Y-120650000D01*
X172720000Y-120650000D02*
X176530000Y-120650000D01*
X189230000Y-66040000D02*
X190500000Y-66040000D01*
X190500000Y-66040000D02*
X193040000Y-66040000D01*
X179070000Y-87630000D02*
X182880000Y-87630000D01*
X106680000Y-119380000D02*
X107950000Y-120650000D01*
X106680000Y-104140000D02*
X106680000Y-119380000D01*
X102870000Y-100330000D02*
X106680000Y-104140000D01*
X203200000Y-118110000D02*
X203200000Y-123190000D01*
X196850000Y-87630000D02*
X199390000Y-87630000D01*
X199390000Y-87630000D02*
X200660000Y-87630000D01*
X200660000Y-87630000D02*
X203200000Y-87630000D01*
X68580000Y-81280000D02*
X68580000Y-87630000D01*
X107950000Y-76200000D02*
X107950000Y-77469700D01*
X151130000Y-123190000D02*
X147320000Y-123190000D01*
X152400000Y-81280000D02*
X148590000Y-81280000D01*
X153531500Y-123190000D02*
X151130000Y-123190000D01*
X154801500Y-121920000D02*
X153531500Y-123190000D01*
X154940000Y-121920000D02*
X154801500Y-121920000D01*
X152561000Y-142401000D02*
X165100000Y-154940000D01*
X152561000Y-134638300D02*
X152561000Y-142401000D01*
X153531500Y-133667800D02*
X152561000Y-134638300D01*
X153531500Y-123190000D02*
X153531500Y-133667800D01*
X176305000Y-84865000D02*
X179070000Y-87630000D01*
X174249800Y-84865000D02*
X176305000Y-84865000D01*
X168910000Y-79525200D02*
X174249800Y-84865000D01*
X168910000Y-77470000D02*
X168910000Y-79525200D01*
X166370000Y-74930000D02*
X168910000Y-77470000D01*
X66210600Y-69679400D02*
X77470000Y-58420000D01*
X66210600Y-81280000D02*
X66210600Y-69679400D01*
X68580000Y-81280000D02*
X66210600Y-81280000D01*
X66210600Y-81280000D02*
X63500000Y-81280000D01*
X165100000Y-113030000D02*
X172720000Y-120650000D01*
X165100000Y-111760000D02*
X165100000Y-113030000D01*
X100330000Y-66902800D02*
X100330000Y-68580000D01*
X105410000Y-61822800D02*
X100330000Y-66902800D01*
X105410000Y-59690000D02*
X105410000Y-61822800D01*
X135890000Y-120650000D02*
X135890000Y-115570000D01*
X135890000Y-115570000D02*
X135890000Y-113220200D01*
X135890000Y-113220200D02*
X121971100Y-113220200D01*
X114541300Y-120650000D02*
X107950000Y-120650000D01*
X121971100Y-113220200D02*
X114541300Y-120650000D01*
X186690000Y-134620000D02*
X186690000Y-124460000D01*
X182880000Y-138430000D02*
X186690000Y-134620000D01*
X189229400Y-119380300D02*
X189230000Y-119380300D01*
X186690000Y-121919700D02*
X189229400Y-119380300D01*
X186690000Y-124460000D02*
X186690000Y-121919700D01*
X189230000Y-116840000D02*
X189230000Y-119380300D01*
X110400800Y-79078400D02*
X107950000Y-79078400D01*
X115570000Y-84247600D02*
X110400800Y-79078400D01*
X115570000Y-87630000D02*
X115570000Y-84247600D01*
X119380000Y-91440000D02*
X115570000Y-87630000D01*
X107950000Y-80010000D02*
X107950000Y-79078400D01*
X107950000Y-79078400D02*
X107950000Y-77469700D01*
X141160200Y-79285500D02*
X138074700Y-76200000D01*
X141160200Y-82550000D02*
X141160200Y-79285500D01*
X143510000Y-82550000D02*
X141160200Y-82550000D01*
X135890000Y-76200000D02*
X138074700Y-76200000D01*
X152400000Y-81202100D02*
X152400000Y-81280000D01*
X154862100Y-78740000D02*
X152400000Y-81202100D01*
X158750000Y-78740000D02*
X154862100Y-78740000D01*
X121971100Y-100757900D02*
X121971100Y-113220200D01*
X121971000Y-100757900D02*
X121971100Y-100757900D01*
X119509400Y-98296300D02*
X121971000Y-100757900D01*
X119509400Y-91569400D02*
X119509400Y-98296300D01*
X119380000Y-91440000D02*
X119509400Y-91569400D01*
X77469400Y-135890300D02*
X74930000Y-138429700D01*
X80010000Y-135890300D02*
X77469400Y-135890300D01*
X80010000Y-133350000D02*
X80010000Y-135890300D01*
X74930000Y-140970000D02*
X74930000Y-138429700D01*
X74930000Y-110490000D02*
X73651800Y-110490000D01*
X66163600Y-90046400D02*
X68580000Y-87630000D01*
X66163600Y-100880800D02*
X66163600Y-90046400D01*
X73651800Y-108369000D02*
X66163600Y-100880800D01*
X73651800Y-110490000D02*
X73651800Y-108369000D01*
X71120000Y-113021800D02*
X73651800Y-110490000D01*
X71120000Y-119380000D02*
X71120000Y-113021800D01*
D24*
%TO.N,N-000001*%
X113612300Y-75369300D02*
X115925000Y-75369300D01*
X112328100Y-74085100D02*
X113612300Y-75369300D01*
X107097500Y-74085100D02*
X112328100Y-74085100D01*
X105410000Y-75772600D02*
X107097500Y-74085100D01*
X105410000Y-80010000D02*
X105410000Y-75772600D01*
%TO.N,N-00000100*%
X68580000Y-106680000D02*
X63500000Y-106680000D01*
D23*
%TO.N,N-00000102*%
X177800000Y-64770000D02*
X181610000Y-64770000D01*
D24*
%TO.N,N-00000103*%
X82550000Y-128270000D02*
X82550000Y-133350000D01*
X63004900Y-103863400D02*
X63500000Y-103863400D01*
X59496100Y-107372200D02*
X63004900Y-103863400D01*
X59496100Y-141438000D02*
X59496100Y-107372200D01*
X66216800Y-148158700D02*
X59496100Y-141438000D01*
X82136400Y-148158700D02*
X66216800Y-148158700D01*
X84484100Y-145811000D02*
X82136400Y-148158700D01*
X84484100Y-135284100D02*
X84484100Y-145811000D01*
X82550000Y-133350000D02*
X84484100Y-135284100D01*
X63500000Y-101600000D02*
X63500000Y-103863400D01*
D23*
%TO.N,N-00000104*%
X180150700Y-74740700D02*
X177800000Y-72390000D01*
X184664000Y-74740700D02*
X180150700Y-74740700D01*
X185572800Y-73831900D02*
X184664000Y-74740700D01*
X188920200Y-73831900D02*
X185572800Y-73831900D01*
X190353000Y-75264700D02*
X188920200Y-73831900D01*
X190353000Y-78887000D02*
X190353000Y-75264700D01*
X187960000Y-81280000D02*
X190353000Y-78887000D01*
D24*
%TO.N,N-00000105*%
X76200000Y-97790000D02*
X82550000Y-97790000D01*
X80010000Y-102870000D02*
X81940700Y-102870000D01*
X82550000Y-97790000D02*
X82550000Y-102870000D01*
X82550000Y-102870000D02*
X81940700Y-102870000D01*
%TO.N,N-00000106*%
X72136300Y-70103700D02*
X76200000Y-70103700D01*
X68580000Y-73660000D02*
X72136300Y-70103700D01*
X76200000Y-72390000D02*
X76200000Y-70103700D01*
X76200000Y-69850000D02*
X76200000Y-70103700D01*
X80010000Y-66040000D02*
X76200000Y-69850000D01*
%TO.N,N-00000107*%
X70582200Y-146050000D02*
X76200000Y-146050000D01*
X64270900Y-139738700D02*
X70582200Y-146050000D01*
X62721200Y-139738700D02*
X64270900Y-139738700D01*
X61156200Y-138173700D02*
X62721200Y-139738700D01*
X61156200Y-126466600D02*
X61156200Y-138173700D01*
X68580000Y-119042800D02*
X61156200Y-126466600D01*
X68580000Y-114300000D02*
X68580000Y-119042800D01*
%TO.N,N-00000108*%
X77470000Y-130810000D02*
X74930000Y-128270000D01*
X77470000Y-133350000D02*
X77470000Y-130810000D01*
%TO.N,N-0000011*%
X149860000Y-107950000D02*
X149860000Y-104140000D01*
X140970000Y-111760000D02*
X140970000Y-107950000D01*
X134620000Y-105410000D02*
X134620000Y-101600000D01*
X130810000Y-73660000D02*
X133350000Y-71120000D01*
X130810000Y-76200000D02*
X130810000Y-73660000D01*
X130504200Y-78486300D02*
X130810000Y-78486300D01*
X125730000Y-83260500D02*
X130504200Y-78486300D01*
X125730000Y-87630000D02*
X125730000Y-83260500D01*
X130810000Y-76200000D02*
X130810000Y-78486300D01*
%TO.N,N-0000012*%
X95250000Y-105854200D02*
X92710000Y-108394200D01*
X95250000Y-105410000D02*
X95250000Y-105854200D01*
X92710000Y-110490000D02*
X92710000Y-108394200D01*
%TO.N,N-0000014*%
X129540000Y-99060000D02*
X134620000Y-99060000D01*
X125730000Y-102870000D02*
X129540000Y-99060000D01*
%TO.N,N-0000015*%
X110933600Y-94423600D02*
X114300000Y-97790000D01*
X101984400Y-94423600D02*
X110933600Y-94423600D01*
X98616000Y-97792000D02*
X101984400Y-94423600D01*
X98616000Y-99965800D02*
X98616000Y-97792000D01*
X95489700Y-103092100D02*
X98616000Y-99965800D01*
X94603600Y-103092100D02*
X95489700Y-103092100D01*
X90170000Y-107525700D02*
X94603600Y-103092100D01*
X90170000Y-110490000D02*
X90170000Y-107525700D01*
%TO.N,N-0000016*%
X160020000Y-142240000D02*
X160020000Y-143510000D01*
X157480000Y-139700000D02*
X160020000Y-142240000D01*
X168451900Y-153670000D02*
X168910000Y-153670000D01*
X160020000Y-145238100D02*
X168451900Y-153670000D01*
X160020000Y-143510000D02*
X160020000Y-145238100D01*
%TO.N,N-0000017*%
X173990000Y-151130000D02*
X176530000Y-153670000D01*
X173990000Y-135890000D02*
X173990000Y-151130000D01*
%TO.N,N-0000018*%
X165100000Y-147320000D02*
X165100000Y-143510000D01*
X171450000Y-143510000D02*
X171450000Y-138430000D01*
%TO.N,N-0000019*%
X162560000Y-121920000D02*
X162560000Y-125730000D01*
X162560000Y-126142900D02*
X162560000Y-125730000D01*
X161734100Y-126968800D02*
X162560000Y-126142900D01*
X161734100Y-136334100D02*
X161734100Y-126968800D01*
X165100000Y-139700000D02*
X161734100Y-136334100D01*
X164242900Y-126142900D02*
X166370000Y-128270000D01*
X162560000Y-126142900D02*
X164242900Y-126142900D01*
%TO.N,N-000002*%
X95250000Y-91440000D02*
X95250000Y-96520000D01*
%TO.N,N-0000020*%
X156333300Y-126876700D02*
X157480000Y-125730000D01*
X156333300Y-135890000D02*
X156333300Y-126876700D01*
X154940000Y-135890000D02*
X156333300Y-135890000D01*
X156333300Y-135890000D02*
X157480000Y-135890000D01*
%TO.N,N-0000021*%
X182880000Y-146050000D02*
X186690000Y-146050000D01*
%TO.N,N-0000022*%
X196850000Y-130810000D02*
X195580000Y-129540000D01*
X196850000Y-134620000D02*
X196850000Y-130810000D01*
X192786300Y-126746300D02*
X191770000Y-126746300D01*
X195580000Y-129540000D02*
X192786300Y-126746300D01*
X191770000Y-124460000D02*
X191770000Y-126746300D01*
%TO.N,N-0000023*%
X163830000Y-130810000D02*
X163830000Y-132905800D01*
X163830000Y-132905800D02*
X165828700Y-134904400D01*
X165100000Y-135633100D02*
X165828700Y-134904400D01*
X165100000Y-135890000D02*
X165100000Y-135633100D01*
X172720000Y-128013100D02*
X172720000Y-125730000D01*
X165828700Y-134904400D02*
X172720000Y-128013100D01*
%TO.N,N-0000024*%
X89696300Y-113030000D02*
X90170000Y-113030000D01*
X87630000Y-110963700D02*
X89696300Y-113030000D01*
X87630000Y-105410000D02*
X87630000Y-110963700D01*
X87630000Y-95250000D02*
X82550000Y-90170000D01*
X87630000Y-105410000D02*
X87630000Y-95250000D01*
%TO.N,N-0000025*%
X189230000Y-128270000D02*
X189230000Y-124460000D01*
X193040000Y-138430000D02*
X189230000Y-134620000D01*
X196850000Y-138430000D02*
X193040000Y-138430000D01*
X189230000Y-134620000D02*
X189230000Y-128270000D01*
%TO.N,N-0000026*%
X203200000Y-129540000D02*
X203200000Y-125730000D01*
%TO.N,N-0000027*%
X139090700Y-85090000D02*
X137820700Y-83820000D01*
X143510000Y-85090000D02*
X139090700Y-85090000D01*
X135890000Y-83820000D02*
X137820700Y-83820000D01*
X118110000Y-78417800D02*
X121032700Y-81340500D01*
X118110000Y-71957000D02*
X118110000Y-78417800D01*
X116419200Y-70266200D02*
X118110000Y-71957000D01*
X112428200Y-70266200D02*
X116419200Y-70266200D01*
X111997700Y-70696700D02*
X112428200Y-70266200D01*
X105095600Y-70696700D02*
X111997700Y-70696700D01*
X104658500Y-70259600D02*
X105095600Y-70696700D01*
X101973600Y-70259600D02*
X104658500Y-70259600D01*
X100330000Y-71903200D02*
X101973600Y-70259600D01*
X100330000Y-80010000D02*
X100330000Y-71903200D01*
%TO.N,N-0000028*%
X203200000Y-111760000D02*
X203200000Y-115570000D01*
%TO.N,N-0000029*%
X88900000Y-60960000D02*
X95250000Y-60960000D01*
X86360000Y-58420000D02*
X88900000Y-60960000D01*
X99885800Y-63055800D02*
X100330000Y-63500000D01*
X95250000Y-63055800D02*
X99885800Y-63055800D01*
X95250000Y-60960000D02*
X95250000Y-63055800D01*
%TO.N,N-000003*%
X133350000Y-91440000D02*
X133350000Y-87630000D01*
X133350000Y-87630000D02*
X133350000Y-83820000D01*
%TO.N,N-0000030*%
X157480000Y-92710000D02*
X154940000Y-92710000D01*
%TO.N,N-0000031*%
X194310000Y-113030000D02*
X194310000Y-116840000D01*
X195580000Y-111760000D02*
X194310000Y-113030000D01*
%TO.N,N-0000032*%
X191770000Y-111760000D02*
X191770000Y-116840000D01*
X195580000Y-104140000D02*
X191770000Y-107950000D01*
X191770000Y-107950000D02*
X191770000Y-111760000D01*
%TO.N,N-0000033*%
X80010000Y-63500000D02*
X80010000Y-58420000D01*
%TO.N,N-0000034*%
X181610000Y-114300000D02*
X181610000Y-128270000D01*
X184150000Y-111760000D02*
X181610000Y-114300000D01*
X78740000Y-80010000D02*
X78740000Y-77723700D01*
X85090000Y-82550000D02*
X83820000Y-83820000D01*
X85090000Y-78740000D02*
X85090000Y-82550000D01*
X84073700Y-77723700D02*
X78740000Y-77723700D01*
X85090000Y-78740000D02*
X84073700Y-77723700D01*
%TO.N,N-0000035*%
X76200000Y-87630000D02*
X76200000Y-83820000D01*
X76200000Y-83820000D02*
X76200000Y-80010000D01*
%TO.N,N-0000036*%
X85090000Y-67310000D02*
X86360000Y-66040000D01*
X85090000Y-71120000D02*
X85090000Y-67310000D01*
X87630000Y-66040000D02*
X90170000Y-63500000D01*
X86360000Y-66040000D02*
X87630000Y-66040000D01*
%TO.N,N-0000038*%
X78740000Y-72390000D02*
X81280000Y-72390000D01*
%TO.N,N-0000039*%
X110490000Y-59690000D02*
X110490000Y-64770000D01*
X113030000Y-64770000D02*
X110490000Y-64770000D01*
X110490000Y-64770000D02*
X109220000Y-64770000D01*
%TO.N,N-000004*%
X139700000Y-105410000D02*
X140970000Y-105410000D01*
X134620000Y-110490000D02*
X139700000Y-105410000D01*
X125730000Y-110490000D02*
X134620000Y-110490000D01*
%TO.N,N-0000040*%
X120650000Y-64770000D02*
X120650000Y-67753400D01*
X120650000Y-67753400D02*
X120650000Y-72390000D01*
X126173400Y-67753400D02*
X128270000Y-69850000D01*
X120650000Y-67753400D02*
X126173400Y-67753400D01*
%TO.N,N-0000041*%
X163830000Y-81280000D02*
X163830000Y-82550000D01*
X166370000Y-78740000D02*
X163830000Y-81280000D01*
X163830000Y-84736000D02*
X163830000Y-82550000D01*
X163194900Y-84736000D02*
X163830000Y-84736000D01*
X161734100Y-86196800D02*
X163194900Y-84736000D01*
X161734100Y-93154100D02*
X161734100Y-86196800D01*
X165100000Y-96520000D02*
X161734100Y-93154100D01*
X166016000Y-84736000D02*
X166370000Y-85090000D01*
X163830000Y-84736000D02*
X166016000Y-84736000D01*
%TO.N,N-0000042*%
X97790000Y-58420000D02*
X90170000Y-58420000D01*
X98656600Y-57553400D02*
X97790000Y-58420000D01*
X119783400Y-57553400D02*
X98656600Y-57553400D01*
X124460000Y-62230000D02*
X119783400Y-57553400D01*
X128270000Y-62230000D02*
X124460000Y-62230000D01*
%TO.N,N-0000043*%
X147320000Y-92710000D02*
X151130000Y-88900000D01*
X152400000Y-88900000D02*
X151130000Y-88900000D01*
X151130000Y-88900000D02*
X148590000Y-86360000D01*
X119380000Y-83820000D02*
X119380000Y-87630000D01*
%TO.N,N-0000044*%
X90170000Y-78740000D02*
X92710000Y-81280000D01*
X88900000Y-78740000D02*
X90170000Y-78740000D01*
%TO.N,N-0000045*%
X111760000Y-83820000D02*
X107950000Y-87630000D01*
%TO.N,N-0000046*%
X109473700Y-89916300D02*
X105410000Y-89916300D01*
X111760000Y-87630000D02*
X109473700Y-89916300D01*
X105410000Y-87630000D02*
X105410000Y-89916300D01*
%TO.N,N-0000047*%
X102870000Y-72390000D02*
X102870000Y-76200000D01*
X102870000Y-76200000D02*
X102870000Y-80010000D01*
%TO.N,N-0000049*%
X88900000Y-71120000D02*
X92710000Y-71120000D01*
X93980000Y-72390000D02*
X92710000Y-71120000D01*
X95250000Y-72390000D02*
X93980000Y-72390000D01*
%TO.N,N-000005*%
X140970000Y-99060000D02*
X137160000Y-99060000D01*
%TO.N,N-0000050*%
X163830000Y-87630000D02*
X163830000Y-89725800D01*
X165957100Y-91852900D02*
X163830000Y-89725800D01*
X170180000Y-87630000D02*
X165957100Y-91852900D01*
X173990000Y-87630000D02*
X170180000Y-87630000D01*
X165957100Y-91852900D02*
X165100000Y-92710000D01*
%TO.N,N-0000051*%
X168451900Y-110490000D02*
X168910000Y-110490000D01*
X160020000Y-102058100D02*
X168451900Y-110490000D01*
X160020000Y-100330000D02*
X160020000Y-102058100D01*
X160020000Y-99060000D02*
X160020000Y-100330000D01*
X157480000Y-96520000D02*
X160020000Y-99060000D01*
%TO.N,N-0000052*%
X173990000Y-92710000D02*
X176085800Y-92710000D01*
X180046500Y-97315700D02*
X180046500Y-94561900D01*
X176530000Y-100832200D02*
X180046500Y-97315700D01*
X176530000Y-110490000D02*
X176530000Y-100832200D01*
X178194600Y-92710000D02*
X180046500Y-94561900D01*
X176085800Y-92710000D02*
X178194600Y-92710000D01*
X181028100Y-94561900D02*
X182880000Y-92710000D01*
X180046500Y-94561900D02*
X181028100Y-94561900D01*
%TO.N,N-0000053*%
X171450000Y-100330000D02*
X171450000Y-95250000D01*
X165100000Y-104140000D02*
X165100000Y-100330000D01*
X165100000Y-100330000D02*
X171450000Y-100330000D01*
%TO.N,N-0000054*%
X182880000Y-100330000D02*
X186690000Y-100330000D01*
%TO.N,N-0000055*%
X189230000Y-101336700D02*
X189230000Y-100330000D01*
X186657600Y-103909100D02*
X189230000Y-101336700D01*
X181840900Y-103909100D02*
X186657600Y-103909100D01*
X179070000Y-106680000D02*
X181840900Y-103909100D01*
%TO.N,N-0000056*%
X190500000Y-96520000D02*
X189230000Y-97790000D01*
X195580000Y-96520000D02*
X190500000Y-96520000D01*
%TO.N,N-0000057*%
X189230000Y-138430000D02*
X189230000Y-143510000D01*
%TO.N,N-000006*%
X90170000Y-95250000D02*
X95250000Y-100330000D01*
X90170000Y-91440000D02*
X90170000Y-95250000D01*
%TO.N,N-0000060*%
X152400000Y-60960000D02*
X152400000Y-63500000D01*
X152400000Y-63500000D02*
X153670000Y-64770000D01*
X146473600Y-101176400D02*
X148590000Y-99060000D01*
X146473600Y-112718600D02*
X146473600Y-101176400D01*
X147752400Y-113997400D02*
X146473600Y-112718600D01*
X149982500Y-113997400D02*
X147752400Y-113997400D01*
X159623600Y-123638500D02*
X149982500Y-113997400D01*
X159623600Y-130743600D02*
X159623600Y-123638500D01*
X158467400Y-131899800D02*
X159623600Y-130743600D01*
X154526800Y-65626800D02*
X153670000Y-64770000D01*
X154526800Y-69457200D02*
X154526800Y-65626800D01*
X151954900Y-72029100D02*
X154526800Y-69457200D01*
X149796800Y-72029100D02*
X151954900Y-72029100D01*
X145605900Y-76220000D02*
X149796800Y-72029100D01*
X145605900Y-86380000D02*
X145605900Y-76220000D01*
X145174300Y-86811600D02*
X145605900Y-86380000D01*
X145174300Y-95644300D02*
X145174300Y-86811600D01*
X148590000Y-99060000D02*
X145174300Y-95644300D01*
%TO.N,N-0000061*%
X171450000Y-64770000D02*
X166370000Y-59690000D01*
X171450000Y-68580000D02*
X171450000Y-64770000D01*
X169354100Y-147764100D02*
X171450000Y-149860000D01*
X169354100Y-134932300D02*
X169354100Y-147764100D01*
X170571900Y-133714500D02*
X169354100Y-134932300D01*
X171519300Y-133714500D02*
X170571900Y-133714500D01*
X178626500Y-126607300D02*
X171519300Y-133714500D01*
X178626500Y-119762100D02*
X178626500Y-126607300D01*
X171450000Y-112585600D02*
X178626500Y-119762100D01*
X171450000Y-106680000D02*
X171450000Y-112585600D01*
X174434100Y-97431300D02*
X177030600Y-94834800D01*
X174434100Y-103695900D02*
X174434100Y-97431300D01*
X171450000Y-106680000D02*
X174434100Y-103695900D01*
%TO.N,N-0000062*%
X158750000Y-71120000D02*
X158750000Y-74930000D01*
%TO.N,N-0000064*%
X107950000Y-68580000D02*
X106680000Y-67310000D01*
X110490000Y-68580000D02*
X107950000Y-68580000D01*
%TO.N,N-0000065*%
X162560000Y-59690000D02*
X157480000Y-64770000D01*
X166370000Y-63500000D02*
X162560000Y-59690000D01*
%TO.N,N-0000066*%
X173990000Y-68580000D02*
X173990000Y-63500000D01*
X173990000Y-68580000D02*
X173990000Y-70675800D01*
X173990000Y-73660000D02*
X173990000Y-70675800D01*
X179070000Y-78740000D02*
X173990000Y-73660000D01*
%TO.N,N-0000067*%
X142240000Y-74930000D02*
X142240000Y-73024700D01*
X142240000Y-73024700D02*
X142240000Y-69850000D01*
X146050000Y-69850000D02*
X143954200Y-69850000D01*
X142240000Y-69850000D02*
X143954200Y-69850000D01*
X161284200Y-76205800D02*
X166370000Y-71120000D01*
X161284200Y-82980000D02*
X161284200Y-76205800D01*
X159595600Y-84668600D02*
X161284200Y-82980000D01*
X157900700Y-84668600D02*
X159595600Y-84668600D01*
X155326300Y-82094200D02*
X157900700Y-84668600D01*
X155326300Y-81598800D02*
X155326300Y-82094200D01*
%TO.N,N-0000068*%
X104140000Y-153670000D02*
X109220000Y-153670000D01*
%TO.N,N-0000069*%
X119787200Y-143594400D02*
X119787200Y-142373900D01*
X114878900Y-148502700D02*
X119787200Y-143594400D01*
X107090800Y-148502700D02*
X114878900Y-148502700D01*
%TO.N,N-000007*%
X128270000Y-94615000D02*
X128270000Y-83820000D01*
%TO.N,N-0000070*%
X81852100Y-112776300D02*
X84232900Y-115157100D01*
X80010000Y-112776300D02*
X81852100Y-112776300D01*
X84232900Y-123602900D02*
X84232900Y-115157100D01*
X86360000Y-125730000D02*
X84232900Y-123602900D01*
X84232900Y-115157100D02*
X85090000Y-114300000D01*
X80010000Y-110490000D02*
X80010000Y-112776300D01*
%TO.N,N-0000071*%
X77470000Y-114300000D02*
X77470000Y-110490000D01*
X77154800Y-108203700D02*
X77470000Y-108203700D01*
X68580000Y-99628900D02*
X77154800Y-108203700D01*
X68580000Y-97790000D02*
X68580000Y-99628900D01*
X77470000Y-110490000D02*
X77470000Y-108203700D01*
%TO.N,N-0000072*%
X87630000Y-151606600D02*
X87630000Y-146050000D01*
X89693400Y-153670000D02*
X87630000Y-151606600D01*
X90170000Y-153670000D02*
X89693400Y-153670000D01*
X87630000Y-134620000D02*
X86360000Y-133350000D01*
X87630000Y-146050000D02*
X87630000Y-134620000D01*
%TO.N,N-0000073*%
X123879900Y-123109400D02*
X126339300Y-120650000D01*
X112865100Y-123109400D02*
X123879900Y-123109400D01*
X108789400Y-127185100D02*
X112865100Y-123109400D01*
X105478600Y-127185100D02*
X108789400Y-127185100D01*
X102870000Y-129793700D02*
X105478600Y-127185100D01*
X102870000Y-132080000D02*
X102870000Y-129793700D01*
X128270000Y-120650000D02*
X126339300Y-120650000D01*
%TO.N,N-0000074*%
X127000000Y-144780000D02*
X134620000Y-144780000D01*
X125730000Y-146050000D02*
X127000000Y-144780000D01*
X105410000Y-151130000D02*
X109220000Y-151130000D01*
X100330000Y-146050000D02*
X105410000Y-151130000D01*
%TO.N,N-0000075*%
X111760000Y-143510000D02*
X111760000Y-141414200D01*
X114300000Y-138430000D02*
X111537900Y-141192100D01*
X106882100Y-141192100D02*
X111537900Y-141192100D01*
X104120100Y-143954100D02*
X106882100Y-141192100D01*
X94344400Y-143954100D02*
X104120100Y-143954100D01*
X90170000Y-148128500D02*
X94344400Y-143954100D01*
X90170000Y-151130000D02*
X90170000Y-148128500D01*
X111537900Y-141192100D02*
X111760000Y-141414200D01*
%TO.N,N-0000076*%
X102870000Y-120650000D02*
X102870000Y-124460000D01*
%TO.N,N-0000078*%
X112013700Y-129793700D02*
X105410000Y-129793700D01*
X113030000Y-130810000D02*
X112013700Y-129793700D01*
X105410000Y-132080000D02*
X105410000Y-129793700D01*
%TO.N,N-0000079*%
X86360000Y-121920000D02*
X92710000Y-121920000D01*
%TO.N,N-000008*%
X116840000Y-110490000D02*
X111760000Y-110490000D01*
X118936600Y-108393400D02*
X116840000Y-110490000D01*
X118936600Y-100417900D02*
X118936600Y-108393400D01*
X117604100Y-99085400D02*
X118936600Y-100417900D01*
X117604100Y-97284100D02*
X117604100Y-99085400D01*
X111760000Y-91440000D02*
X117604100Y-97284100D01*
%TO.N,N-0000080*%
X78740000Y-118110000D02*
X78740000Y-121920000D01*
X76200000Y-121920000D02*
X74930000Y-123190000D01*
X78740000Y-121920000D02*
X76200000Y-121920000D01*
%TO.N,N-0000081*%
X189230000Y-147101800D02*
X189230000Y-146050000D01*
X186471800Y-149860000D02*
X189230000Y-147101800D01*
X179070000Y-149860000D02*
X186471800Y-149860000D01*
%TO.N,N-0000083*%
X92710000Y-151130000D02*
X94805800Y-151130000D01*
X95250000Y-146050000D02*
X95250000Y-151130000D01*
X97790000Y-151130000D02*
X95250000Y-151130000D01*
X100330000Y-153670000D02*
X97790000Y-151130000D01*
X95250000Y-151130000D02*
X94805800Y-151130000D01*
%TO.N,N-0000084*%
X151130000Y-130810000D02*
X149860000Y-130810000D01*
X149860000Y-130810000D02*
X147320000Y-128270000D01*
X149860000Y-133350000D02*
X149860000Y-130810000D01*
X147320000Y-135890000D02*
X149860000Y-133350000D01*
X120650000Y-127000000D02*
X120650000Y-130810000D01*
X136880200Y-125285600D02*
X131101100Y-125285600D01*
X139864600Y-128270000D02*
X136880200Y-125285600D01*
X147320000Y-128270000D02*
X139864600Y-128270000D01*
%TO.N,N-0000085*%
X143510000Y-139263700D02*
X143510000Y-148590000D01*
X141840800Y-137594500D02*
X143510000Y-139263700D01*
X137995500Y-137594500D02*
X141840800Y-137594500D01*
X135890000Y-139700000D02*
X137995500Y-137594500D01*
X154940000Y-148590000D02*
X143510000Y-148590000D01*
X157480000Y-151130000D02*
X154940000Y-148590000D01*
%TO.N,N-0000086*%
X133350000Y-135890000D02*
X133350000Y-132080000D01*
X133350000Y-132080000D02*
X133350000Y-128270000D01*
%TO.N,N-0000087*%
X90170000Y-135890000D02*
X90170000Y-132080000D01*
X95250000Y-140970000D02*
X90170000Y-135890000D01*
%TO.N,N-0000088*%
X128270000Y-139700000D02*
X128270000Y-128270000D01*
%TO.N,N-0000089*%
X111760000Y-151130000D02*
X113855800Y-151130000D01*
X116840000Y-151130000D02*
X113855800Y-151130000D01*
X121912000Y-135882000D02*
X120650000Y-134620000D01*
X121912000Y-146058000D02*
X121912000Y-135882000D01*
X116840000Y-151130000D02*
X121912000Y-146058000D01*
%TO.N,N-000009*%
X143510000Y-98627800D02*
X143510000Y-105410000D01*
X139497200Y-94615000D02*
X143510000Y-98627800D01*
X135890000Y-94615000D02*
X139497200Y-94615000D01*
%TO.N,N-0000091*%
X103657600Y-116848900D02*
X104301200Y-116848900D01*
X100330000Y-120176500D02*
X103657600Y-116848900D01*
X100330000Y-124460000D02*
X100330000Y-120176500D01*
%TO.N,N-0000092*%
X133776800Y-153670000D02*
X134620000Y-154513200D01*
X125730000Y-153670000D02*
X133776800Y-153670000D01*
X134620000Y-156210000D02*
X134620000Y-154513200D01*
X140543200Y-148590000D02*
X140970000Y-148590000D01*
X134620000Y-154513200D02*
X140543200Y-148590000D01*
%TO.N,N-0000093*%
X137160000Y-144780000D02*
X139255800Y-144780000D01*
X140970000Y-139700000D02*
X140970000Y-143510000D01*
X140525800Y-143510000D02*
X139255800Y-144780000D01*
X140970000Y-143510000D02*
X140525800Y-143510000D01*
%TO.N,N-0000094*%
X95250000Y-137160000D02*
X95250000Y-132080000D01*
%TO.N,N-0000095*%
X130810000Y-118110000D02*
X130810000Y-120650000D01*
X133350000Y-115570000D02*
X130810000Y-118110000D01*
X130810000Y-120650000D02*
X130810000Y-122936300D01*
X125730000Y-127651800D02*
X125730000Y-132080000D01*
X130445500Y-122936300D02*
X125730000Y-127651800D01*
X130810000Y-122936300D02*
X130445500Y-122936300D01*
X123619000Y-134191000D02*
X125730000Y-132080000D01*
X123619000Y-146979300D02*
X123619000Y-134191000D01*
X124830300Y-148190600D02*
X123619000Y-146979300D01*
X134620000Y-148190600D02*
X124830300Y-148190600D01*
X134620000Y-151130000D02*
X134620000Y-148190600D01*
X134620000Y-148190600D02*
X134620000Y-147320000D01*
X149860000Y-151130000D02*
X140970000Y-151130000D01*
X140970000Y-151130000D02*
X140970000Y-154940000D01*
%TO.N,N-0000098*%
X63500000Y-119380000D02*
X63500000Y-111760000D01*
%TO.N,N-0000099*%
X80010000Y-140970000D02*
X80010000Y-143256300D01*
X79756300Y-144526300D02*
X79756300Y-143510000D01*
X81280000Y-146050000D02*
X79756300Y-144526300D01*
X79756300Y-143510000D02*
X80010000Y-143256300D01*
X71120000Y-143510000D02*
X79756300Y-143510000D01*
X63500000Y-132080000D02*
X63500000Y-134343400D01*
X63995100Y-134343400D02*
X63500000Y-134343400D01*
X71120000Y-141468300D02*
X63995100Y-134343400D01*
X71120000Y-143510000D02*
X71120000Y-141468300D01*
D23*
%TO.N,VAA*%
X193040000Y-86360000D02*
X193040000Y-73660000D01*
X194310000Y-90170000D02*
X196850000Y-90170000D01*
X193040000Y-88900000D02*
X194310000Y-90170000D01*
X193040000Y-86360000D02*
X193040000Y-88900000D01*
X185420000Y-67310000D02*
X189230000Y-71120000D01*
X190500000Y-71120000D02*
X193040000Y-73660000D01*
X185420000Y-65027100D02*
X185420000Y-67310000D01*
X189230000Y-71120000D02*
X190500000Y-71120000D01*
X147320000Y-58420000D02*
X149225000Y-60325000D01*
X146685000Y-62865000D02*
X149225000Y-60325000D01*
X149225000Y-60325000D02*
X151130000Y-58420000D01*
X144780000Y-64770000D02*
X140335000Y-64770000D01*
X146685000Y-62865000D02*
X144780000Y-64770000D01*
X196850000Y-90170000D02*
X203200000Y-90170000D01*
X197952100Y-93621900D02*
X196850000Y-92519800D01*
X197952100Y-105577900D02*
X197952100Y-93621900D01*
X196992600Y-106537400D02*
X197952100Y-105577900D01*
X196992600Y-109362500D02*
X196992600Y-106537400D01*
X197929900Y-110299800D02*
X196992600Y-109362500D01*
X197929900Y-123024800D02*
X197929900Y-110299800D01*
X196494700Y-124460000D02*
X197929900Y-123024800D01*
X194310000Y-124460000D02*
X196494700Y-124460000D01*
X196850000Y-90170000D02*
X196850000Y-92519800D01*
X114300000Y-146050000D02*
X116840000Y-143510000D01*
X109220000Y-146050000D02*
X114300000Y-146050000D01*
X109220000Y-146050000D02*
X104140000Y-146050000D01*
X182756200Y-62363300D02*
X185420000Y-65027100D01*
X176663300Y-62363300D02*
X182756200Y-62363300D01*
X173990000Y-59690000D02*
X176663300Y-62363300D01*
X115570000Y-102870000D02*
X116840000Y-102870000D01*
X115570000Y-102949400D02*
X115570000Y-102870000D01*
X113109400Y-105410000D02*
X115570000Y-102949400D01*
X109220000Y-105410000D02*
X113109400Y-105410000D01*
X115570000Y-102760800D02*
X115570000Y-102870000D01*
X110599200Y-97790000D02*
X115570000Y-102760800D01*
X106680000Y-97790000D02*
X110599200Y-97790000D01*
X171640100Y-57340100D02*
X173990000Y-59690000D01*
X158559900Y-57340100D02*
X171640100Y-57340100D01*
X157480000Y-58420000D02*
X158559900Y-57340100D01*
X106680000Y-137619900D02*
X106680000Y-138430000D01*
X103870300Y-134810200D02*
X106680000Y-137619900D01*
X99601900Y-134810200D02*
X103870300Y-134810200D01*
X98113900Y-133322200D02*
X99601900Y-134810200D01*
X98113900Y-111436100D02*
X98113900Y-133322200D01*
X104140000Y-105410000D02*
X98113900Y-111436100D01*
X151130000Y-58420000D02*
X157480000Y-58420000D01*
X80168400Y-83661900D02*
X81280000Y-82550300D01*
X80168400Y-92027900D02*
X80168400Y-83661900D01*
X84940300Y-96799800D02*
X80168400Y-92027900D01*
X84940300Y-110284400D02*
X84940300Y-96799800D01*
X84734700Y-110490000D02*
X84940300Y-110284400D01*
X82550000Y-110490000D02*
X84734700Y-110490000D01*
X81280000Y-80010000D02*
X81280000Y-82550300D01*
X129181100Y-72262300D02*
X124460000Y-72262300D01*
X130619900Y-70823500D02*
X129181100Y-72262300D01*
X130619900Y-70438400D02*
X130619900Y-70823500D01*
X136288300Y-64770000D02*
X130619900Y-70438400D01*
X140335000Y-64770000D02*
X136288300Y-64770000D01*
X124460000Y-72262300D02*
X124460000Y-69850000D01*
X124460000Y-81236300D02*
X124460000Y-72262300D01*
X121859200Y-83837100D02*
X124460000Y-81236300D01*
X121859200Y-97323100D02*
X121859200Y-83837100D01*
%TD*%
M02*
