M48
; DRILL file {KiCad 5.1.10-88a1d61d58~88~ubuntu20.10.1} date Fri Jun 25 22:17:57 2021
; FORMAT={-:-/ absolute / inch / decimal}
; #@! TF.CreationDate,2021-06-25T22:17:57+02:00
; #@! TF.GenerationSoftware,Kicad,Pcbnew,5.1.10-88a1d61d58~88~ubuntu20.10.1
; #@! TF.FileFunction,Plated,1,2,PTH
FMAT,2
INCH
T1C0.0320
T2C0.0350
T3C0.0394
T4C0.0500
T5C0.1200
%
G90
G05
T1
X2.5Y-2.8
X2.5Y-3.0
X2.5Y-3.2
X2.5Y-4.0
X2.5Y-4.2
X2.5Y-4.4
X2.5Y-4.7
X2.5Y-5.2
X2.5Y-5.4
X2.5Y-5.6
X2.7Y-2.9
X2.7Y-3.2
X2.7Y-3.45
X2.7Y-3.85
X2.7Y-4.2
X2.7Y-4.5
X2.75Y-4.85
X2.8Y-4.7
X2.8Y-5.35
X2.8Y-5.65
X2.9Y-2.85
X2.9Y-3.15
X2.95Y-4.05
X2.95Y-4.35
X2.95Y-4.85
X2.95Y-5.05
X2.95Y-5.25
X2.95Y-5.55
X3.0Y-2.85
X3.0Y-3.15
X3.0Y-3.3
X3.0Y-3.45
X3.0Y-3.85
X3.0Y-5.75
X3.05Y-2.3
X3.05Y-4.05
X3.05Y-4.35
X3.05Y-4.5
X3.05Y-5.25
X3.05Y-5.55
X3.1Y-2.85
X3.1Y-3.15
X3.1Y-4.65
X3.1Y-4.8
X3.15Y-2.3
X3.15Y-2.5
X3.15Y-2.6
X3.15Y-4.05
X3.15Y-4.35
X3.15Y-5.25
X3.15Y-5.55
X3.2Y-2.85
X3.2Y-3.15
X3.2Y-5.75
X3.25Y-3.55
X3.25Y-3.85
X3.25Y-4.05
X3.25Y-4.35
X3.25Y-5.05
X3.25Y-5.25
X3.25Y-5.55
X3.3Y-3.3
X3.35Y-2.8
X3.35Y-3.1
X3.35Y-4.5
X3.4Y-2.3
X3.4Y-2.6
X3.4Y-4.65
X3.4Y-4.8
X3.4Y-4.95
X3.4Y-5.25
X3.45Y-4.15
X3.45Y-5.75
X3.5Y-2.8
X3.5Y-3.1
X3.55Y-2.3
X3.55Y-2.5
X3.55Y-4.35
X3.55Y-4.45
X3.55Y-5.95
X3.55Y-6.05
X3.65Y-2.6
X3.65Y-2.8
X3.65Y-4.35
X3.65Y-5.95
X3.75Y-2.4
X3.75Y-2.85
X3.75Y-3.8
X3.75Y-3.95
X3.75Y-4.15
X3.75Y-5.4
X3.75Y-5.55
X3.75Y-5.75
X3.85Y-2.3
X3.85Y-2.4
X3.95Y-2.5
X3.95Y-2.7
X3.95Y-3.15
X3.95Y-3.45
X3.95Y-4.15
X3.95Y-4.45
X3.95Y-4.9
X3.95Y-5.2
X3.95Y-5.75
X3.95Y-6.05
X4.05Y-2.85
X4.05Y-3.0
X4.05Y-3.15
X4.05Y-3.45
X4.05Y-3.8
X4.05Y-3.95
X4.05Y-4.75
X4.05Y-4.9
X4.05Y-5.2
X4.05Y-5.4
X4.05Y-5.55
X4.1Y-4.15
X4.1Y-4.45
X4.1Y-5.75
X4.1Y-6.05
X4.15Y-2.35
X4.15Y-3.15
X4.15Y-3.45
X4.15Y-4.9
X4.15Y-5.2
X4.2Y-2.55
X4.2Y-2.65
X4.2Y-3.85
X4.2Y-5.45
X4.25Y-3.0
X4.25Y-3.15
X4.25Y-3.45
X4.25Y-4.75
X4.25Y-4.9
X4.25Y-5.2
X4.3Y-2.55
X4.3Y-4.05
X4.3Y-4.15
X4.3Y-4.35
X4.3Y-4.45
X4.3Y-5.65
X4.3Y-5.75
X4.3Y-5.95
X4.3Y-6.05
X4.35Y-2.35
X4.35Y-2.7
X4.4Y-3.3
X4.4Y-3.45
X4.4Y-3.6
X4.4Y-4.05
X4.4Y-4.35
X4.4Y-5.65
X4.4Y-5.95
X4.45Y-2.55
X4.45Y-5.0
X4.45Y-5.15
X4.45Y-5.3
X4.5Y-3.85
X4.5Y-5.45
X4.55Y-2.85
X4.6Y-4.05
X4.6Y-4.35
X4.6Y-5.65
X4.6Y-5.95
X4.65Y-2.7
X4.7Y-3.3
X4.7Y-3.45
X4.7Y-3.6
X4.75Y-2.55
X4.75Y-2.85
X4.75Y-5.0
X4.75Y-5.15
X4.75Y-5.3
X4.9Y-2.45
X4.9Y-2.75
X4.95Y-3.45
X4.95Y-3.6
X4.95Y-4.05
X4.95Y-4.35
X4.95Y-5.2
X4.95Y-5.35
X4.95Y-5.75
X4.95Y-6.05
X5.05Y-2.45
X5.05Y-2.75
X5.05Y-3.0
X5.05Y-3.3
X5.05Y-3.725
X5.05Y-4.75
X5.05Y-5.05
X5.05Y-5.5
X5.15Y-3.0
X5.15Y-3.3
X5.15Y-4.75
X5.15Y-5.05
X5.25Y-2.8
X5.25Y-3.0
X5.25Y-3.3
X5.25Y-3.45
X5.25Y-3.6
X5.25Y-4.55
X5.25Y-4.75
X5.25Y-5.05
X5.25Y-5.2
X5.25Y-5.35
X5.3Y-3.9
X5.3Y-4.0
X5.3Y-4.15
X5.3Y-4.35
X5.3Y-5.7
X5.3Y-5.8
X5.3Y-5.95
X5.3Y-6.15
X5.35Y-2.8
X5.35Y-3.0
X5.35Y-3.3
X5.35Y-3.725
X5.35Y-4.55
X5.35Y-4.75
X5.35Y-5.05
X5.35Y-5.5
X5.4Y-3.9
X5.4Y-5.7
X5.5Y-2.3
X5.55Y-3.9
X5.55Y-4.15
X5.55Y-4.25
X5.55Y-4.4
X5.55Y-5.5
X5.55Y-5.65
X5.55Y-5.85
X5.55Y-5.95
X5.55Y-6.1
X5.6Y-2.45
X5.6Y-2.75
X5.6Y-2.95
X5.6Y-4.85
X5.6Y-4.95
X5.65Y-3.25
X5.65Y-3.35
X5.65Y-4.15
X5.65Y-5.85
X5.75Y-2.75
X5.8Y-2.3
X5.8Y-3.65
X5.8Y-4.85
X5.8Y-5.05
X5.8Y-5.35
X5.85Y-2.75
X5.85Y-3.2
X5.85Y-3.4
X5.85Y-3.9
X5.85Y-4.4
X5.85Y-5.5
X5.85Y-5.65
X5.85Y-6.1
X5.9Y-2.95
X5.9Y-4.1
X5.9Y-4.25
X5.9Y-5.95
X5.95Y-4.85
X5.95Y-5.15
X6.0Y-2.4
X6.0Y-2.7
X6.0Y-3.2
X6.0Y-3.5
X6.1Y-3.65
X6.1Y-4.8
X6.1Y-5.35
X6.2Y-2.3
X6.2Y-2.4
X6.2Y-2.55
X6.2Y-2.65
X6.2Y-3.65
X6.2Y-3.8
X6.2Y-4.1
X6.2Y-4.25
X6.2Y-4.95
X6.2Y-5.35
X6.2Y-5.5
X6.2Y-5.95
X6.25Y-2.8
X6.25Y-2.95
X6.25Y-3.1
X6.25Y-3.25
X6.3Y-3.95
X6.3Y-5.65
X6.4Y-2.35
X6.4Y-2.65
X6.4Y-4.8
X6.4Y-4.95
X6.45Y-3.25
X6.45Y-3.45
X6.45Y-5.15
X6.5Y-3.65
X6.5Y-3.8
X6.5Y-3.95
X6.5Y-4.1
X6.5Y-4.4
X6.5Y-5.35
X6.5Y-5.5
X6.5Y-5.65
X6.5Y-5.8
X6.5Y-6.1
X6.55Y-2.35
X6.55Y-2.5
X6.55Y-2.8
X6.55Y-2.95
X6.55Y-3.1
X6.55Y-3.35
X6.55Y-3.45
X6.55Y-5.05
X6.55Y-5.15
X6.65Y-4.35
X6.65Y-6.05
X6.75Y-2.7
X6.75Y-2.8
X6.75Y-3.1
X6.75Y-3.65
X6.75Y-3.75
X6.75Y-3.95
X6.75Y-4.05
X6.75Y-4.2
X6.75Y-5.35
X6.75Y-5.45
X6.75Y-5.65
X6.75Y-5.75
X6.75Y-5.9
X6.8Y-4.75
X6.8Y-4.95
X6.85Y-2.35
X6.85Y-2.5
X6.85Y-2.7
X6.85Y-3.45
X6.85Y-3.65
X6.85Y-5.35
X6.95Y-4.35
X6.95Y-4.75
X6.95Y-4.95
X6.95Y-6.05
X7.0Y-2.3
X7.0Y-2.55
X7.0Y-2.85
X7.05Y-3.1
X7.05Y-3.45
X7.05Y-4.2
X7.05Y-5.9
X7.1Y-2.3
X7.15Y-2.55
X7.15Y-2.85
X7.15Y-5.05
X7.2Y-3.45
X7.2Y-3.65
X7.2Y-3.95
X7.2Y-4.25
X7.2Y-5.45
X7.2Y-5.75
X7.25Y-4.4
X7.35Y-3.95
X7.35Y-4.6
X7.35Y-4.9
X7.35Y-5.75
X7.4Y-3.0
X7.4Y-3.2
X7.45Y-2.4
X7.45Y-2.6
X7.45Y-3.85
X7.45Y-3.95
X7.45Y-4.6
X7.45Y-4.9
X7.45Y-5.05
X7.45Y-5.3
X7.45Y-5.45
X7.45Y-5.65
X7.45Y-5.75
X7.55Y-4.25
X7.55Y-4.4
X7.55Y-4.6
X7.55Y-4.9
X7.65Y-4.6
X7.65Y-4.9
X7.7Y-3.8
X7.7Y-4.1
X7.7Y-4.4
X7.7Y-5.1
X7.75Y-2.7
X7.75Y-2.8
X7.75Y-3.45
X7.75Y-3.55
X7.75Y-5.3
X7.75Y-5.45
X7.85Y-4.25
X8.0Y-4.4
X8.0Y-4.55
X8.0Y-4.65
X8.0Y-4.85
X8.0Y-4.95
X8.0Y-5.1
T2
X4.1063Y-4.6004
X4.2162Y-5.8466
X4.564Y-2.9673
X4.716Y-5.6053
X4.7651Y-3.2024
X4.7976Y-3.8316
X5.1615Y-4.9325
X6.1152Y-3.2126
X6.2389Y-5.1929
X6.9697Y-3.7337
T3
X8.0Y-2.6
X8.0Y-2.7
X8.0Y-2.8
X8.0Y-3.35
X8.0Y-3.45
X8.0Y-3.55
T4
X3.55Y-3.6
X3.55Y-5.2
X3.65Y-3.2
X3.65Y-4.8
X3.75Y-3.6
X3.75Y-5.2
T5
X2.35Y-2.35
X2.35Y-6.05
X7.95Y-2.35
X7.95Y-6.05
T0
M30
