%TF.GenerationSoftware,KiCad,Pcbnew,5.1.10-88a1d61d58~88~ubuntu20.10.1*%
%TF.CreationDate,2021-06-25T22:13:37+02:00*%
%TF.ProjectId,juno-chorus-clone,6a756e6f-2d63-4686-9f72-75732d636c6f,3*%
%TF.SameCoordinates,Original*%
%TF.FileFunction,Copper,L1,Top*%
%TF.FilePolarity,Positive*%
%FSLAX46Y46*%
G04 Gerber Fmt 4.6, Leading zero omitted, Abs format (unit mm)*
G04 Created by KiCad (PCBNEW 5.1.10-88a1d61d58~88~ubuntu20.10.1) date 2021-06-25 22:13:37*
%MOMM*%
%LPD*%
G01*
G04 APERTURE LIST*
%TA.AperFunction,NonConductor*%
%ADD10C,0.300000*%
%TD*%
%TA.AperFunction,ComponentPad*%
%ADD11R,1.905000X1.905000*%
%TD*%
%TA.AperFunction,ComponentPad*%
%ADD12C,1.905000*%
%TD*%
%TA.AperFunction,ComponentPad*%
%ADD13C,2.395220*%
%TD*%
%TA.AperFunction,ComponentPad*%
%ADD14R,2.240280X2.240280*%
%TD*%
%TA.AperFunction,ComponentPad*%
%ADD15C,2.240280*%
%TD*%
%TA.AperFunction,ComponentPad*%
%ADD16R,1.574800X2.286000*%
%TD*%
%TA.AperFunction,ComponentPad*%
%ADD17O,1.574800X2.286000*%
%TD*%
%TA.AperFunction,ComponentPad*%
%ADD18R,1.524000X1.524000*%
%TD*%
%TA.AperFunction,ComponentPad*%
%ADD19C,2.032000*%
%TD*%
%TA.AperFunction,ComponentPad*%
%ADD20O,3.500120X1.699260*%
%TD*%
%TA.AperFunction,ComponentPad*%
%ADD21C,4.064000*%
%TD*%
%TA.AperFunction,ViaPad*%
%ADD22C,1.905000*%
%TD*%
%TA.AperFunction,Conductor*%
%ADD23C,1.524000*%
%TD*%
%TA.AperFunction,Conductor*%
%ADD24C,1.016000*%
%TD*%
G04 APERTURE END LIST*
D10*
X201234523Y-142119047D02*
X202177952Y-142119047D01*
X201706238Y-144659047D02*
X201706238Y-142119047D01*
X202964142Y-144659047D02*
X202806904Y-144538095D01*
X202728285Y-144417142D01*
X202649666Y-144175238D01*
X202649666Y-143449523D01*
X202728285Y-143207619D01*
X202806904Y-143086666D01*
X202964142Y-142965714D01*
X203200000Y-142965714D01*
X203357238Y-143086666D01*
X203435857Y-143207619D01*
X203514476Y-143449523D01*
X203514476Y-144175238D01*
X203435857Y-144417142D01*
X203357238Y-144538095D01*
X203200000Y-144659047D01*
X202964142Y-144659047D01*
X204222047Y-142965714D02*
X204222047Y-145505714D01*
X204222047Y-143086666D02*
X204379285Y-142965714D01*
X204693761Y-142965714D01*
X204851000Y-143086666D01*
X204929619Y-143207619D01*
X205008238Y-143449523D01*
X205008238Y-144175238D01*
X204929619Y-144417142D01*
X204851000Y-144538095D01*
X204693761Y-144659047D01*
X204379285Y-144659047D01*
X204222047Y-144538095D01*
D11*
%TO.P,Q16,D*%
%TO.N,N-0000054*%
X186690000Y-100330000D03*
D12*
%TO.P,Q16,G*%
%TO.N,N-0000055*%
X189230000Y-100330000D03*
%TO.P,Q16,S*%
%TO.N,N-0000056*%
X189230000Y-97790000D03*
%TD*%
D11*
%TO.P,Q17,D*%
%TO.N,N-0000021*%
X186690000Y-146050000D03*
D12*
%TO.P,Q17,G*%
%TO.N,N-0000081*%
X189230000Y-146050000D03*
%TO.P,Q17,S*%
%TO.N,N-0000057*%
X189230000Y-143510000D03*
%TD*%
D11*
%TO.P,Q7,3*%
%TO.N,N-000008*%
X111760000Y-110490000D03*
D12*
%TO.P,Q7,2*%
%TO.N,N-0000014*%
X109220000Y-110490000D03*
%TO.P,Q7,1*%
%TO.N,N-0000010*%
X109220000Y-113030000D03*
%TD*%
D11*
%TO.P,Q13,3*%
%TO.N,N-0000066*%
X173990000Y-68580000D03*
D12*
%TO.P,Q13,2*%
%TO.N,N-0000061*%
X171450000Y-68580000D03*
%TO.P,Q13,1*%
%TO.N,-VAA*%
X171450000Y-71120000D03*
%TD*%
D11*
%TO.P,Q2,3*%
%TO.N,N-0000083*%
X92710000Y-151130000D03*
D12*
%TO.P,Q2,2*%
%TO.N,N-0000075*%
X90170000Y-151130000D03*
%TO.P,Q2,1*%
%TO.N,N-0000072*%
X90170000Y-153670000D03*
%TD*%
D11*
%TO.P,Q5,3*%
%TO.N,N-000005*%
X137160000Y-99060000D03*
D12*
%TO.P,Q5,2*%
%TO.N,N-0000014*%
X134620000Y-99060000D03*
%TO.P,Q5,1*%
%TO.N,N-0000011*%
X134620000Y-101600000D03*
%TD*%
D11*
%TO.P,Q6,3*%
%TO.N,N-0000093*%
X137160000Y-144780000D03*
D12*
%TO.P,Q6,2*%
%TO.N,N-0000074*%
X134620000Y-144780000D03*
%TO.P,Q6,1*%
%TO.N,N-0000095*%
X134620000Y-147320000D03*
%TD*%
D11*
%TO.P,Q9,3*%
%TO.N,N-000009*%
X143510000Y-105410000D03*
D12*
%TO.P,Q9,2*%
%TO.N,N-000004*%
X140970000Y-105410000D03*
%TO.P,Q9,1*%
%TO.N,N-0000011*%
X140970000Y-107950000D03*
%TD*%
D11*
%TO.P,Q10,3*%
%TO.N,N-0000085*%
X143510000Y-148590000D03*
D12*
%TO.P,Q10,2*%
%TO.N,N-0000092*%
X140970000Y-148590000D03*
%TO.P,Q10,1*%
%TO.N,N-0000095*%
X140970000Y-151130000D03*
%TD*%
D11*
%TO.P,Q1,3*%
%TO.N,N-0000012*%
X92710000Y-110490000D03*
D12*
%TO.P,Q1,2*%
%TO.N,N-0000015*%
X90170000Y-110490000D03*
%TO.P,Q1,1*%
%TO.N,N-0000024*%
X90170000Y-113030000D03*
%TD*%
D11*
%TO.P,Q18,3*%
%TO.N,N-0000029*%
X95250000Y-60960000D03*
D12*
%TO.P,Q18,2*%
%TO.N,-VAA*%
X97790000Y-60960000D03*
%TO.P,Q18,1*%
%TO.N,N-0000042*%
X97790000Y-58420000D03*
%TD*%
D11*
%TO.P,Q19,3*%
%TO.N,N-0000039*%
X109220000Y-64770000D03*
D12*
%TO.P,Q19,2*%
%TO.N,-VAA*%
X106680000Y-64770000D03*
%TO.P,Q19,1*%
%TO.N,N-0000064*%
X106680000Y-67310000D03*
%TD*%
D11*
%TO.P,Q14,3*%
%TO.N,N-0000052*%
X173990000Y-92710000D03*
D12*
%TO.P,Q14,2*%
%TO.N,-VAA*%
X171450000Y-92710000D03*
%TO.P,Q14,1*%
%TO.N,N-0000053*%
X171450000Y-95250000D03*
%TD*%
D11*
%TO.P,Q11,3*%
%TO.N,N-0000050*%
X163830000Y-87630000D03*
D12*
%TO.P,Q11,2*%
%TO.N,-VAA*%
X166370000Y-87630000D03*
%TO.P,Q11,1*%
%TO.N,N-0000041*%
X166370000Y-85090000D03*
%TD*%
D11*
%TO.P,Q12,3*%
%TO.N,N-0000023*%
X163830000Y-130810000D03*
D12*
%TO.P,Q12,2*%
%TO.N,-VAA*%
X166370000Y-130810000D03*
%TO.P,Q12,1*%
%TO.N,N-0000019*%
X166370000Y-128270000D03*
%TD*%
D11*
%TO.P,Q15,3*%
%TO.N,N-0000017*%
X173990000Y-135890000D03*
D12*
%TO.P,Q15,2*%
%TO.N,-VAA*%
X171450000Y-135890000D03*
%TO.P,Q15,1*%
%TO.N,N-0000018*%
X171450000Y-138430000D03*
%TD*%
D11*
%TO.P,Q3,3*%
%TO.N,N-0000015*%
X111760000Y-102870000D03*
D12*
%TO.P,Q3,2*%
%TO.N,N-0000013*%
X109220000Y-102870000D03*
%TO.P,Q3,1*%
%TO.N,VAA*%
X109220000Y-105410000D03*
%TD*%
D11*
%TO.P,Q4,3*%
%TO.N,N-0000075*%
X111760000Y-143510000D03*
D12*
%TO.P,Q4,2*%
%TO.N,N-0000069*%
X109220000Y-143510000D03*
%TO.P,Q4,1*%
%TO.N,VAA*%
X109220000Y-146050000D03*
%TD*%
D11*
%TO.P,Q8,3*%
%TO.N,N-0000089*%
X111760000Y-151130000D03*
D12*
%TO.P,Q8,2*%
%TO.N,N-0000074*%
X109220000Y-151130000D03*
%TO.P,Q8,1*%
%TO.N,N-0000068*%
X109220000Y-153670000D03*
%TD*%
D11*
%TO.P,P2,1*%
%TO.N,N-0000033*%
X80010000Y-58420000D03*
D12*
%TO.P,P2,2*%
%TO.N,GND*%
X77470000Y-58420000D03*
%TD*%
D11*
%TO.P,P1,1*%
%TO.N,N-00000102*%
X177800000Y-58420000D03*
D12*
%TO.P,P1,2*%
%TO.N,GND*%
X180340000Y-58420000D03*
%TD*%
D11*
%TO.P,SW1,1*%
%TO.N,N-0000062*%
X157480000Y-60960000D03*
D12*
%TO.P,SW1,2*%
%TO.N,VAA*%
X157480000Y-58420000D03*
%TD*%
D11*
%TO.P,P4,1*%
%TO.N,N-0000026*%
X203200000Y-125730000D03*
D12*
%TO.P,P4,2*%
%TO.N,GND*%
X203200000Y-123190000D03*
%TD*%
D11*
%TO.P,P3,1*%
%TO.N,N-0000028*%
X203200000Y-115570000D03*
D12*
%TO.P,P3,2*%
%TO.N,GND*%
X203200000Y-118110000D03*
%TD*%
D13*
%TO.P,RV1,2*%
%TO.N,N-00000100*%
X63500000Y-106680000D03*
D14*
%TO.P,RV1,1*%
%TO.N,N-00000103*%
X63500000Y-101600000D03*
D15*
%TO.P,RV1,3*%
%TO.N,N-0000098*%
X63500000Y-111760000D03*
%TD*%
D13*
%TO.P,RV5,2*%
%TO.N,N-0000037*%
X63500000Y-76200000D03*
D14*
%TO.P,RV5,1*%
%TO.N,N-0000038*%
X63500000Y-71120000D03*
D15*
%TO.P,RV5,3*%
%TO.N,GND*%
X63500000Y-81280000D03*
%TD*%
D13*
%TO.P,RV2,2*%
%TO.N,N-0000090*%
X63500000Y-137160000D03*
D14*
%TO.P,RV2,1*%
%TO.N,N-0000099*%
X63500000Y-132080000D03*
D15*
%TO.P,RV2,3*%
%TO.N,GND*%
X63500000Y-142240000D03*
%TD*%
D16*
%TO.P,U8,1*%
%TO.N,GND*%
X135890000Y-120650000D03*
D17*
%TO.P,U8,2*%
%TO.N,N-0000082*%
X133350000Y-120650000D03*
%TO.P,U8,3*%
%TO.N,N-0000095*%
X130810000Y-120650000D03*
%TO.P,U8,4*%
%TO.N,N-0000073*%
X128270000Y-120650000D03*
%TO.P,U8,5*%
%TO.N,N-0000088*%
X128270000Y-128270000D03*
%TO.P,U8,6*%
%TO.N,N/C*%
X130810000Y-128270000D03*
%TO.P,U8,7*%
%TO.N,N-0000086*%
X133350000Y-128270000D03*
%TO.P,U8,8*%
%TO.N,N-0000091*%
X135890000Y-128270000D03*
%TD*%
D16*
%TO.P,U10,1*%
%TO.N,N-0000031*%
X194310000Y-116840000D03*
D17*
%TO.P,U10,2*%
%TO.N,N-0000032*%
X191770000Y-116840000D03*
%TO.P,U10,3*%
%TO.N,GND*%
X189230000Y-116840000D03*
%TO.P,U10,4*%
%TO.N,-VAA*%
X186690000Y-116840000D03*
%TO.P,U10,5*%
%TO.N,GND*%
X186690000Y-124460000D03*
%TO.P,U10,6*%
%TO.N,N-0000025*%
X189230000Y-124460000D03*
%TO.P,U10,7*%
%TO.N,N-0000022*%
X191770000Y-124460000D03*
%TO.P,U10,8*%
%TO.N,VAA*%
X194310000Y-124460000D03*
%TD*%
D16*
%TO.P,U9,1*%
%TO.N,N-0000038*%
X81280000Y-72390000D03*
D17*
%TO.P,U9,2*%
X78740000Y-72390000D03*
%TO.P,U9,3*%
%TO.N,N-00000106*%
X76200000Y-72390000D03*
%TO.P,U9,4*%
%TO.N,-VAA*%
X73660000Y-72390000D03*
%TO.P,U9,5*%
%TO.N,N-0000037*%
X73660000Y-80010000D03*
%TO.P,U9,6*%
%TO.N,N-0000035*%
X76200000Y-80010000D03*
%TO.P,U9,7*%
%TO.N,N-0000034*%
X78740000Y-80010000D03*
%TO.P,U9,8*%
%TO.N,VAA*%
X81280000Y-80010000D03*
%TD*%
D16*
%TO.P,U5,1*%
%TO.N,GND*%
X107950000Y-80010000D03*
D17*
%TO.P,U5,2*%
%TO.N,N-000001*%
X105410000Y-80010000D03*
%TO.P,U5,3*%
%TO.N,N-0000047*%
X102870000Y-80010000D03*
%TO.P,U5,4*%
%TO.N,N-0000027*%
X100330000Y-80010000D03*
%TO.P,U5,5*%
%TO.N,N-0000011*%
X100330000Y-87630000D03*
%TO.P,U5,6*%
%TO.N,N-0000048*%
X102870000Y-87630000D03*
%TO.P,U5,7*%
%TO.N,N-0000046*%
X105410000Y-87630000D03*
%TO.P,U5,8*%
%TO.N,N-0000045*%
X107950000Y-87630000D03*
%TD*%
D16*
%TO.P,U6,1*%
%TO.N,GND*%
X135890000Y-76200000D03*
D17*
%TO.P,U6,2*%
%TO.N,N-000001*%
X133350000Y-76200000D03*
%TO.P,U6,3*%
%TO.N,N-0000011*%
X130810000Y-76200000D03*
%TO.P,U6,4*%
%TO.N,N-0000048*%
X128270000Y-76200000D03*
%TO.P,U6,5*%
%TO.N,N-000007*%
X128270000Y-83820000D03*
%TO.P,U6,6*%
%TO.N,N/C*%
X130810000Y-83820000D03*
%TO.P,U6,7*%
%TO.N,N-000003*%
X133350000Y-83820000D03*
%TO.P,U6,8*%
%TO.N,N-0000027*%
X135890000Y-83820000D03*
%TD*%
D16*
%TO.P,U7,1*%
%TO.N,GND*%
X107950000Y-124460000D03*
D17*
%TO.P,U7,2*%
%TO.N,N-0000082*%
X105410000Y-124460000D03*
%TO.P,U7,3*%
%TO.N,N-0000076*%
X102870000Y-124460000D03*
%TO.P,U7,4*%
%TO.N,N-0000091*%
X100330000Y-124460000D03*
%TO.P,U7,5*%
%TO.N,N-0000095*%
X100330000Y-132080000D03*
%TO.P,U7,6*%
%TO.N,N-0000073*%
X102870000Y-132080000D03*
%TO.P,U7,7*%
%TO.N,N-0000078*%
X105410000Y-132080000D03*
%TO.P,U7,8*%
%TO.N,N-0000077*%
X107950000Y-132080000D03*
%TD*%
D16*
%TO.P,U4,1*%
%TO.N,N-00000105*%
X82550000Y-102870000D03*
D17*
%TO.P,U4,2*%
X80010000Y-102870000D03*
%TO.P,U4,3*%
%TO.N,N-0000090*%
X77470000Y-102870000D03*
%TO.P,U4,4*%
%TO.N,-VAA*%
X74930000Y-102870000D03*
%TO.P,U4,5*%
%TO.N,GND*%
X74930000Y-110490000D03*
%TO.P,U4,6*%
%TO.N,N-0000071*%
X77470000Y-110490000D03*
%TO.P,U4,7*%
%TO.N,N-0000070*%
X80010000Y-110490000D03*
%TO.P,U4,8*%
%TO.N,VAA*%
X82550000Y-110490000D03*
%TD*%
D16*
%TO.P,U1,1*%
%TO.N,N-00000103*%
X82550000Y-133350000D03*
D17*
%TO.P,U1,2*%
%TO.N,GND*%
X80010000Y-133350000D03*
%TO.P,U1,3*%
%TO.N,N-00000108*%
X77470000Y-133350000D03*
%TO.P,U1,4*%
%TO.N,-VAA*%
X74930000Y-133350000D03*
%TO.P,U1,5*%
%TO.N,GND*%
X74930000Y-140970000D03*
%TO.P,U1,6*%
%TO.N,N-00000107*%
X77470000Y-140970000D03*
%TO.P,U1,7*%
%TO.N,N-0000099*%
X80010000Y-140970000D03*
%TO.P,U1,8*%
%TO.N,VAA*%
X82550000Y-140970000D03*
%TD*%
D18*
%TO.P,D2,2*%
%TO.N,N-00000102*%
X181610000Y-64770000D03*
D12*
%TO.P,D2,1*%
%TO.N,N-00000101*%
X181610000Y-72390000D03*
%TD*%
D18*
%TO.P,D3,2*%
%TO.N,N-0000012*%
X100330000Y-113030000D03*
D12*
%TO.P,D3,1*%
%TO.N,N-0000014*%
X100330000Y-105410000D03*
%TD*%
D18*
%TO.P,D5,2*%
%TO.N,N-0000067*%
X142240000Y-74930000D03*
D12*
%TO.P,D5,1*%
%TO.N,N-0000059*%
X149860000Y-74930000D03*
%TD*%
D18*
%TO.P,D6,2*%
%TO.N,N-0000061*%
X171450000Y-106680000D03*
D12*
%TO.P,D6,1*%
%TO.N,N-0000055*%
X179070000Y-106680000D03*
%TD*%
D18*
%TO.P,D7,2*%
%TO.N,N-0000061*%
X171450000Y-149860000D03*
D12*
%TO.P,D7,1*%
%TO.N,N-0000081*%
X179070000Y-149860000D03*
%TD*%
D18*
%TO.P,D4,2*%
%TO.N,N-0000083*%
X100330000Y-153670000D03*
D12*
%TO.P,D4,1*%
%TO.N,N-0000074*%
X100330000Y-146050000D03*
%TD*%
D18*
%TO.P,D1,2*%
%TO.N,N-00000104*%
X177800000Y-72390000D03*
D12*
%TO.P,D1,1*%
%TO.N,N-00000102*%
X177800000Y-64770000D03*
%TD*%
D11*
%TO.P,C1,1*%
%TO.N,N-00000104*%
X187960000Y-81280000D03*
D12*
%TO.P,C1,2*%
%TO.N,GND*%
X187960000Y-76200000D03*
%TD*%
D11*
%TO.P,C2,1*%
%TO.N,GND*%
X189230000Y-66040000D03*
D12*
%TO.P,C2,2*%
%TO.N,N-00000101*%
X189230000Y-60960000D03*
%TD*%
%TO.P,C6,1*%
%TO.N,N-000004*%
X134620000Y-110490000D03*
%TO.P,C6,2*%
%TO.N,N-0000011*%
X134620000Y-105410000D03*
%TD*%
%TO.P,C27,1*%
%TO.N,N-0000016*%
X160020000Y-143510000D03*
%TO.P,C27,2*%
%TO.N,N-0000018*%
X165100000Y-143510000D03*
%TD*%
%TO.P,C33,1*%
%TO.N,N-0000029*%
X100330000Y-63500000D03*
%TO.P,C33,2*%
%TO.N,GND*%
X100330000Y-68580000D03*
%TD*%
%TO.P,C5,1*%
%TO.N,N-0000099*%
X81280000Y-146050000D03*
%TO.P,C5,2*%
%TO.N,N-00000107*%
X76200000Y-146050000D03*
%TD*%
%TO.P,C32,1*%
%TO.N,N-0000036*%
X90170000Y-63500000D03*
%TO.P,C32,2*%
%TO.N,N-0000042*%
X90170000Y-58420000D03*
%TD*%
%TO.P,C34,1*%
%TO.N,N-0000040*%
X120650000Y-72390000D03*
%TO.P,C34,2*%
%TO.N,N-0000064*%
X115570000Y-72390000D03*
%TD*%
%TO.P,C35,1*%
%TO.N,N-0000039*%
X110490000Y-59690000D03*
%TO.P,C35,2*%
%TO.N,GND*%
X105410000Y-59690000D03*
%TD*%
%TO.P,C8,1*%
%TO.N,N-0000049*%
X92710000Y-71120000D03*
%TO.P,C8,2*%
%TO.N,N-0000064*%
X92710000Y-66040000D03*
%TD*%
%TO.P,C21,1*%
%TO.N,N-0000020*%
X157480000Y-125730000D03*
%TO.P,C21,2*%
%TO.N,N-0000019*%
X162560000Y-125730000D03*
%TD*%
%TO.P,C16,1*%
%TO.N,N-0000043*%
X148590000Y-86360000D03*
%TO.P,C16,2*%
%TO.N,GND*%
X148590000Y-81280000D03*
%TD*%
%TO.P,C29,1*%
%TO.N,N-0000017*%
X176530000Y-125730000D03*
%TO.P,C29,2*%
%TO.N,GND*%
X176530000Y-120650000D03*
%TD*%
%TO.P,C18,1*%
%TO.N,N-0000084*%
X147320000Y-128270000D03*
%TO.P,C18,2*%
%TO.N,GND*%
X147320000Y-123190000D03*
%TD*%
%TO.P,C25,1*%
%TO.N,N-0000023*%
X172720000Y-125730000D03*
%TO.P,C25,2*%
%TO.N,GND*%
X172720000Y-120650000D03*
%TD*%
%TO.P,C11,1*%
%TO.N,N-0000076*%
X102870000Y-120650000D03*
%TO.P,C11,2*%
%TO.N,GND*%
X107950000Y-120650000D03*
%TD*%
%TO.P,C9,1*%
%TO.N,N-0000080*%
X74930000Y-123190000D03*
%TO.P,C9,2*%
%TO.N,N-0000064*%
X69850000Y-123190000D03*
%TD*%
%TO.P,C10,1*%
%TO.N,N-0000047*%
X102870000Y-76200000D03*
%TO.P,C10,2*%
%TO.N,GND*%
X107950000Y-76200000D03*
%TD*%
%TO.P,C26,1*%
%TO.N,N-0000051*%
X160020000Y-100330000D03*
%TO.P,C26,2*%
%TO.N,N-0000053*%
X165100000Y-100330000D03*
%TD*%
%TO.P,C20,1*%
%TO.N,N-0000030*%
X158750000Y-82550000D03*
%TO.P,C20,2*%
%TO.N,N-0000041*%
X163830000Y-82550000D03*
%TD*%
%TO.P,C28,1*%
%TO.N,N-0000052*%
X182880000Y-92710000D03*
%TO.P,C28,2*%
%TO.N,GND*%
X182880000Y-87630000D03*
%TD*%
%TO.P,C24,1*%
%TO.N,N-0000050*%
X173990000Y-87630000D03*
%TO.P,C24,2*%
%TO.N,GND*%
X179070000Y-87630000D03*
%TD*%
%TO.P,C7,1*%
%TO.N,N-0000092*%
X134620000Y-156210000D03*
%TO.P,C7,2*%
%TO.N,N-0000095*%
X134620000Y-151130000D03*
%TD*%
D11*
%TO.P,C15,1*%
%TO.N,GND*%
X142240000Y-123190000D03*
D12*
%TO.P,C15,2*%
%TO.N,N-0000091*%
X142240000Y-125730000D03*
%TD*%
D11*
%TO.P,C12,1*%
%TO.N,GND*%
X135890000Y-71120000D03*
D12*
%TO.P,C12,2*%
%TO.N,N-0000011*%
X133350000Y-71120000D03*
%TD*%
D11*
%TO.P,C30,1*%
%TO.N,N-0000054*%
X171450000Y-102870000D03*
D12*
%TO.P,C30,2*%
%TO.N,N-0000053*%
X171450000Y-100330000D03*
%TD*%
D11*
%TO.P,C14,1*%
%TO.N,GND*%
X143510000Y-82550000D03*
D12*
%TO.P,C14,2*%
%TO.N,N-0000027*%
X143510000Y-85090000D03*
%TD*%
D11*
%TO.P,C13,1*%
%TO.N,GND*%
X135890000Y-115570000D03*
D12*
%TO.P,C13,2*%
%TO.N,N-0000095*%
X133350000Y-115570000D03*
%TD*%
D11*
%TO.P,C4,1*%
%TO.N,GND*%
X196850000Y-71120000D03*
D12*
%TO.P,C4,2*%
%TO.N,-VAA*%
X196850000Y-68580000D03*
%TD*%
D11*
%TO.P,C3,1*%
%TO.N,VAA*%
X196850000Y-90170000D03*
D12*
%TO.P,C3,2*%
%TO.N,GND*%
X196850000Y-87630000D03*
%TD*%
D11*
%TO.P,C31,1*%
%TO.N,N-0000021*%
X171450000Y-146050000D03*
D12*
%TO.P,C31,2*%
%TO.N,N-0000018*%
X171450000Y-143510000D03*
%TD*%
D11*
%TO.P,C19,1*%
%TO.N,N-0000033*%
X80010000Y-63500000D03*
D12*
%TO.P,C19,2*%
%TO.N,N-00000106*%
X80010000Y-66040000D03*
%TD*%
D11*
%TO.P,C23,1*%
%TO.N,N-0000065*%
X157480000Y-64770000D03*
D12*
%TO.P,C23,2*%
%TO.N,-VAA*%
X157480000Y-67310000D03*
%TD*%
D19*
%TO.P,RV4,1*%
%TO.N,N-0000087*%
X90170000Y-132080000D03*
%TO.P,RV4,2*%
%TO.N,N-0000079*%
X92710000Y-121920000D03*
%TO.P,RV4,3*%
%TO.N,N-0000094*%
X95250000Y-132080000D03*
%TD*%
%TO.P,RV3,1*%
%TO.N,N-000006*%
X90170000Y-91440000D03*
%TO.P,RV3,2*%
%TO.N,N-0000044*%
X92710000Y-81280000D03*
%TO.P,RV3,3*%
%TO.N,N-000002*%
X95250000Y-91440000D03*
%TD*%
D11*
%TO.P,C17,1*%
%TO.N,N-0000067*%
X146050000Y-69850000D03*
D12*
%TO.P,C17,2*%
%TO.N,-VAA*%
X148590000Y-69850000D03*
%TD*%
%TO.P,R59,1*%
%TO.N,N-0000023*%
X165100000Y-135890000D03*
%TO.P,R59,2*%
%TO.N,N-0000020*%
X157480000Y-135890000D03*
%TD*%
%TO.P,R40,1*%
%TO.N,-VAA*%
X148590000Y-154940000D03*
%TO.P,R40,2*%
%TO.N,N-0000095*%
X140970000Y-154940000D03*
%TD*%
%TO.P,R38,1*%
%TO.N,N-0000094*%
X95250000Y-137160000D03*
%TO.P,R38,2*%
%TO.N,N-0000095*%
X102870000Y-137160000D03*
%TD*%
%TO.P,R32,1*%
%TO.N,N-0000087*%
X95250000Y-140970000D03*
%TO.P,R32,2*%
%TO.N,GND*%
X102870000Y-140970000D03*
%TD*%
%TO.P,R34,1*%
%TO.N,N-0000080*%
X78740000Y-121920000D03*
%TO.P,R34,2*%
%TO.N,N-0000079*%
X86360000Y-121920000D03*
%TD*%
%TO.P,R36,1*%
%TO.N,N-0000080*%
X78740000Y-118110000D03*
%TO.P,R36,2*%
%TO.N,N-0000076*%
X86360000Y-118110000D03*
%TD*%
%TO.P,R74,1*%
%TO.N,N-0000021*%
X182880000Y-146050000D03*
%TO.P,R74,2*%
%TO.N,GND*%
X182880000Y-138430000D03*
%TD*%
%TO.P,R62,1*%
%TO.N,GND*%
X154940000Y-121920000D03*
%TO.P,R62,2*%
%TO.N,N-0000019*%
X162560000Y-121920000D03*
%TD*%
%TO.P,R72,1*%
%TO.N,N-0000018*%
X165100000Y-147320000D03*
%TO.P,R72,2*%
%TO.N,GND*%
X165100000Y-154940000D03*
%TD*%
%TO.P,R69,1*%
%TO.N,N-0000017*%
X176530000Y-153670000D03*
%TO.P,R69,2*%
%TO.N,N-0000016*%
X168910000Y-153670000D03*
%TD*%
%TO.P,R65,1*%
%TO.N,N-0000016*%
X157480000Y-139700000D03*
%TO.P,R65,2*%
%TO.N,N-0000019*%
X165100000Y-139700000D03*
%TD*%
%TO.P,R42,1*%
%TO.N,N-0000095*%
X125730000Y-132080000D03*
%TO.P,R42,2*%
%TO.N,N-0000086*%
X133350000Y-132080000D03*
%TD*%
%TO.P,R53,1*%
%TO.N,N-0000020*%
X154940000Y-135890000D03*
%TO.P,R53,2*%
%TO.N,N-0000084*%
X147320000Y-135890000D03*
%TD*%
%TO.P,R50,1*%
%TO.N,N-0000084*%
X151130000Y-130810000D03*
%TO.P,R50,2*%
%TO.N,GND*%
X151130000Y-123190000D03*
%TD*%
%TO.P,R46,1*%
%TO.N,N-0000078*%
X113030000Y-130810000D03*
%TO.P,R46,2*%
%TO.N,N-0000084*%
X120650000Y-130810000D03*
%TD*%
%TO.P,R45,1*%
%TO.N,N-0000077*%
X113030000Y-127000000D03*
%TO.P,R45,2*%
%TO.N,N-0000084*%
X120650000Y-127000000D03*
%TD*%
%TO.P,R84,1*%
%TO.N,N-0000022*%
X196850000Y-134620000D03*
%TO.P,R84,2*%
%TO.N,N-0000025*%
X189230000Y-134620000D03*
%TD*%
%TO.P,R79,1*%
%TO.N,N-0000025*%
X189230000Y-128270000D03*
%TO.P,R79,2*%
%TO.N,N-0000034*%
X181610000Y-128270000D03*
%TD*%
%TO.P,R80,1*%
%TO.N,N-0000025*%
X196850000Y-138430000D03*
%TO.P,R80,2*%
%TO.N,N-0000057*%
X189230000Y-138430000D03*
%TD*%
%TO.P,R87,1*%
%TO.N,N-0000026*%
X203200000Y-129540000D03*
%TO.P,R87,2*%
%TO.N,N-0000022*%
X195580000Y-129540000D03*
%TD*%
%TO.P,R11,1*%
%TO.N,N-000005*%
X140970000Y-99060000D03*
%TO.P,R11,2*%
%TO.N,N-0000060*%
X148590000Y-99060000D03*
%TD*%
%TO.P,R13,1*%
%TO.N,N-000005*%
X157480000Y-104140000D03*
%TO.P,R13,2*%
%TO.N,N-0000011*%
X149860000Y-104140000D03*
%TD*%
%TO.P,R14,1*%
%TO.N,N-0000093*%
X140970000Y-143510000D03*
%TO.P,R14,2*%
%TO.N,N-0000095*%
X148590000Y-143510000D03*
%TD*%
%TO.P,R47,1*%
%TO.N,N-0000062*%
X158750000Y-74930000D03*
%TO.P,R47,2*%
%TO.N,GND*%
X166370000Y-74930000D03*
%TD*%
%TO.P,R49,1*%
%TO.N,N-0000067*%
X166370000Y-71120000D03*
%TO.P,R49,2*%
%TO.N,N-0000062*%
X158750000Y-71120000D03*
%TD*%
%TO.P,R52,1*%
%TO.N,N-0000060*%
X152400000Y-60960000D03*
%TO.P,R52,2*%
%TO.N,N-0000059*%
X152400000Y-68580000D03*
%TD*%
%TO.P,R56,1*%
%TO.N,N-0000060*%
X142240000Y-62230000D03*
%TO.P,R56,2*%
%TO.N,N-0000067*%
X142240000Y-69850000D03*
%TD*%
%TO.P,R55,1*%
%TO.N,N-0000067*%
X139700000Y-58420000D03*
%TO.P,R55,2*%
%TO.N,VAA*%
X147320000Y-58420000D03*
%TD*%
%TO.P,R57,1*%
%TO.N,N-0000065*%
X162560000Y-59690000D03*
%TO.P,R57,2*%
%TO.N,N-0000067*%
X162560000Y-67310000D03*
%TD*%
%TO.P,R60,1*%
%TO.N,N-0000066*%
X173990000Y-63500000D03*
%TO.P,R60,2*%
%TO.N,N-0000065*%
X166370000Y-63500000D03*
%TD*%
%TO.P,R63,1*%
%TO.N,N-0000066*%
X179070000Y-78740000D03*
%TO.P,R63,2*%
%TO.N,-VAA*%
X171450000Y-78740000D03*
%TD*%
%TO.P,R66,1*%
%TO.N,VAA*%
X173990000Y-59690000D03*
%TO.P,R66,2*%
%TO.N,N-0000061*%
X166370000Y-59690000D03*
%TD*%
%TO.P,R12,1*%
%TO.N,N-0000093*%
X140970000Y-139700000D03*
%TO.P,R12,2*%
%TO.N,N-0000060*%
X148590000Y-139700000D03*
%TD*%
%TO.P,R5,1*%
%TO.N,N-0000024*%
X82550000Y-90170000D03*
%TO.P,R5,2*%
%TO.N,N-00000105*%
X82550000Y-97790000D03*
%TD*%
%TO.P,R6,1*%
%TO.N,N-0000072*%
X86360000Y-133350000D03*
%TO.P,R6,2*%
%TO.N,N-0000070*%
X86360000Y-125730000D03*
%TD*%
%TO.P,R10,1*%
%TO.N,N-0000072*%
X87630000Y-146050000D03*
%TO.P,R10,2*%
%TO.N,N-0000083*%
X95250000Y-146050000D03*
%TD*%
%TO.P,R30,1*%
%TO.N,N-0000088*%
X128270000Y-139700000D03*
%TO.P,R30,2*%
%TO.N,N-0000085*%
X135890000Y-139700000D03*
%TD*%
%TO.P,R28,1*%
%TO.N,N-0000095*%
X149860000Y-151130000D03*
%TO.P,R28,2*%
%TO.N,N-0000085*%
X157480000Y-151130000D03*
%TD*%
%TO.P,R21,1*%
%TO.N,N-0000074*%
X125730000Y-146050000D03*
%TO.P,R21,2*%
%TO.N,N-0000092*%
X125730000Y-153670000D03*
%TD*%
%TO.P,R26,1*%
%TO.N,N-0000069*%
X125730000Y-135890000D03*
%TO.P,R26,2*%
%TO.N,N-0000086*%
X133350000Y-135890000D03*
%TD*%
%TO.P,R8,1*%
%TO.N,N-0000075*%
X114300000Y-138430000D03*
%TO.P,R8,2*%
%TO.N,VAA*%
X106680000Y-138430000D03*
%TD*%
%TO.P,R23,1*%
%TO.N,N-0000089*%
X120650000Y-134620000D03*
%TO.P,R23,2*%
%TO.N,GND*%
X113030000Y-134620000D03*
%TD*%
%TO.P,R17,1*%
%TO.N,VAA*%
X116840000Y-143510000D03*
%TO.P,R17,2*%
%TO.N,N-0000089*%
X116840000Y-151130000D03*
%TD*%
%TO.P,R18,1*%
%TO.N,VAA*%
X104140000Y-146050000D03*
%TO.P,R18,2*%
%TO.N,N-0000068*%
X104140000Y-153670000D03*
%TD*%
%TO.P,R82,1*%
%TO.N,N-0000040*%
X128270000Y-69850000D03*
%TO.P,R82,2*%
%TO.N,N-0000042*%
X128270000Y-62230000D03*
%TD*%
%TO.P,R48,1*%
%TO.N,N-0000043*%
X152400000Y-88900000D03*
%TO.P,R48,2*%
%TO.N,GND*%
X152400000Y-81280000D03*
%TD*%
%TO.P,R44,1*%
%TO.N,N-0000046*%
X111760000Y-87630000D03*
%TO.P,R44,2*%
%TO.N,N-0000043*%
X119380000Y-87630000D03*
%TD*%
%TO.P,R43,1*%
%TO.N,N-0000045*%
X111760000Y-83820000D03*
%TO.P,R43,2*%
%TO.N,N-0000043*%
X119380000Y-83820000D03*
%TD*%
%TO.P,R83,1*%
%TO.N,N-0000031*%
X199390000Y-107950000D03*
%TO.P,R83,2*%
%TO.N,N-0000032*%
X191770000Y-107950000D03*
%TD*%
%TO.P,R77,1*%
%TO.N,N-0000032*%
X191770000Y-111760000D03*
%TO.P,R77,2*%
%TO.N,N-0000034*%
X184150000Y-111760000D03*
%TD*%
%TO.P,R78,1*%
%TO.N,N-0000032*%
X195580000Y-104140000D03*
%TO.P,R78,2*%
%TO.N,N-0000056*%
X195580000Y-96520000D03*
%TD*%
%TO.P,R86,1*%
%TO.N,N-0000028*%
X203200000Y-111760000D03*
%TO.P,R86,2*%
%TO.N,N-0000031*%
X195580000Y-111760000D03*
%TD*%
%TO.P,R81,1*%
%TO.N,VAA*%
X124460000Y-69850000D03*
%TO.P,R81,2*%
%TO.N,N-0000042*%
X124460000Y-62230000D03*
%TD*%
%TO.P,R88,1*%
%TO.N,N-0000064*%
X110490000Y-68580000D03*
%TO.P,R88,2*%
%TO.N,VAA*%
X118110000Y-68580000D03*
%TD*%
%TO.P,R85,1*%
%TO.N,N-0000039*%
X113030000Y-64770000D03*
%TO.P,R85,2*%
%TO.N,N-0000040*%
X120650000Y-64770000D03*
%TD*%
%TO.P,R51,1*%
%TO.N,N-0000030*%
X154940000Y-92710000D03*
%TO.P,R51,2*%
%TO.N,N-0000043*%
X147320000Y-92710000D03*
%TD*%
%TO.P,R76,1*%
%TO.N,N-0000029*%
X86360000Y-58420000D03*
%TO.P,R76,2*%
%TO.N,N-0000036*%
X86360000Y-66040000D03*
%TD*%
%TO.P,R75,1*%
%TO.N,N-0000036*%
X85090000Y-71120000D03*
%TO.P,R75,2*%
%TO.N,N-0000034*%
X85090000Y-78740000D03*
%TD*%
%TO.P,R70,1*%
%TO.N,N-0000034*%
X83820000Y-83820000D03*
%TO.P,R70,2*%
%TO.N,N-0000035*%
X76200000Y-83820000D03*
%TD*%
%TO.P,R67,1*%
%TO.N,N-0000035*%
X76200000Y-87630000D03*
%TO.P,R67,2*%
%TO.N,GND*%
X68580000Y-87630000D03*
%TD*%
%TO.P,R54,1*%
%TO.N,N-00000106*%
X68580000Y-73660000D03*
%TO.P,R54,2*%
%TO.N,GND*%
X68580000Y-81280000D03*
%TD*%
%TO.P,R24,1*%
%TO.N,N-0000071*%
X77470000Y-114300000D03*
%TO.P,R24,2*%
%TO.N,N-0000070*%
X85090000Y-114300000D03*
%TD*%
%TO.P,R19,1*%
%TO.N,N-00000105*%
X76200000Y-97790000D03*
%TO.P,R19,2*%
%TO.N,N-0000071*%
X68580000Y-97790000D03*
%TD*%
%TO.P,R1,1*%
%TO.N,N-00000108*%
X74930000Y-128270000D03*
%TO.P,R1,2*%
%TO.N,N-00000103*%
X82550000Y-128270000D03*
%TD*%
%TO.P,R3,1*%
%TO.N,N-00000108*%
X71120000Y-135890000D03*
%TO.P,R3,2*%
%TO.N,N-0000099*%
X71120000Y-143510000D03*
%TD*%
%TO.P,R4,1*%
%TO.N,N-00000100*%
X68580000Y-106680000D03*
%TO.P,R4,2*%
%TO.N,N-00000107*%
X68580000Y-114300000D03*
%TD*%
%TO.P,R39,1*%
%TO.N,-VAA*%
X148590000Y-111760000D03*
%TO.P,R39,2*%
%TO.N,N-0000011*%
X140970000Y-111760000D03*
%TD*%
%TO.P,R9,1*%
%TO.N,N-0000024*%
X87630000Y-105410000D03*
%TO.P,R9,2*%
%TO.N,N-0000012*%
X95250000Y-105410000D03*
%TD*%
%TO.P,R29,1*%
%TO.N,N-000007*%
X128270000Y-94615000D03*
%TO.P,R29,2*%
%TO.N,N-000009*%
X135890000Y-94615000D03*
%TD*%
%TO.P,R27,1*%
%TO.N,N-0000011*%
X149860000Y-107950000D03*
%TO.P,R27,2*%
%TO.N,N-000009*%
X157480000Y-107950000D03*
%TD*%
%TO.P,R20,1*%
%TO.N,N-0000014*%
X125730000Y-102870000D03*
%TO.P,R20,2*%
%TO.N,N-000004*%
X125730000Y-110490000D03*
%TD*%
%TO.P,R25,1*%
%TO.N,N-0000013*%
X125730000Y-91440000D03*
%TO.P,R25,2*%
%TO.N,N-000003*%
X133350000Y-91440000D03*
%TD*%
%TO.P,R7,1*%
%TO.N,N-0000015*%
X114300000Y-97790000D03*
%TO.P,R7,2*%
%TO.N,VAA*%
X106680000Y-97790000D03*
%TD*%
%TO.P,R22,1*%
%TO.N,N-000008*%
X111760000Y-91440000D03*
%TO.P,R22,2*%
%TO.N,GND*%
X119380000Y-91440000D03*
%TD*%
%TO.P,R15,1*%
%TO.N,VAA*%
X116840000Y-102870000D03*
%TO.P,R15,2*%
%TO.N,N-000008*%
X116840000Y-110490000D03*
%TD*%
%TO.P,R16,1*%
%TO.N,VAA*%
X104140000Y-105410000D03*
%TO.P,R16,2*%
%TO.N,N-0000010*%
X104140000Y-113030000D03*
%TD*%
%TO.P,R41,1*%
%TO.N,N-0000011*%
X125730000Y-87630000D03*
%TO.P,R41,2*%
%TO.N,N-000003*%
X133350000Y-87630000D03*
%TD*%
%TO.P,R2,1*%
%TO.N,N-0000098*%
X63500000Y-119380000D03*
%TO.P,R2,2*%
%TO.N,GND*%
X71120000Y-119380000D03*
%TD*%
%TO.P,R37,1*%
%TO.N,N-000002*%
X95250000Y-96520000D03*
%TO.P,R37,2*%
%TO.N,N-0000011*%
X102870000Y-96520000D03*
%TD*%
%TO.P,R31,1*%
%TO.N,N-000006*%
X95250000Y-100330000D03*
%TO.P,R31,2*%
%TO.N,GND*%
X102870000Y-100330000D03*
%TD*%
%TO.P,R33,1*%
%TO.N,N-0000049*%
X88900000Y-71120000D03*
%TO.P,R33,2*%
%TO.N,N-0000044*%
X88900000Y-78740000D03*
%TD*%
%TO.P,R35,1*%
%TO.N,N-0000049*%
X95250000Y-72390000D03*
%TO.P,R35,2*%
%TO.N,N-0000047*%
X102870000Y-72390000D03*
%TD*%
%TO.P,R73,1*%
%TO.N,N-0000054*%
X182880000Y-100330000D03*
%TO.P,R73,2*%
%TO.N,GND*%
X182880000Y-107950000D03*
%TD*%
%TO.P,R61,1*%
%TO.N,GND*%
X158750000Y-78740000D03*
%TO.P,R61,2*%
%TO.N,N-0000041*%
X166370000Y-78740000D03*
%TD*%
%TO.P,R71,1*%
%TO.N,N-0000053*%
X165100000Y-104140000D03*
%TO.P,R71,2*%
%TO.N,GND*%
X165100000Y-111760000D03*
%TD*%
%TO.P,R68,1*%
%TO.N,N-0000052*%
X176530000Y-110490000D03*
%TO.P,R68,2*%
%TO.N,N-0000051*%
X168910000Y-110490000D03*
%TD*%
%TO.P,R64,1*%
%TO.N,N-0000051*%
X157480000Y-96520000D03*
%TO.P,R64,2*%
%TO.N,N-0000041*%
X165100000Y-96520000D03*
%TD*%
%TO.P,R58,1*%
%TO.N,N-0000050*%
X165100000Y-92710000D03*
%TO.P,R58,2*%
%TO.N,N-0000030*%
X157480000Y-92710000D03*
%TD*%
D20*
%TO.P,U2,2*%
%TO.N,GND*%
X203200000Y-87630000D03*
%TO.P,U2,1*%
%TO.N,N-00000104*%
X203200000Y-85090000D03*
%TO.P,U2,3*%
%TO.N,VAA*%
X203200000Y-90170000D03*
%TD*%
%TO.P,U3,2*%
%TO.N,N-00000101*%
X203200000Y-68580000D03*
%TO.P,U3,1*%
%TO.N,GND*%
X203200000Y-66040000D03*
%TO.P,U3,3*%
%TO.N,-VAA*%
X203200000Y-71120000D03*
%TD*%
D21*
%TO.P,HOLE1,1*%
%TO.N,N/C*%
X59690000Y-59690000D03*
%TD*%
%TO.P,HOLE2,1*%
%TO.N,N/C*%
X59690000Y-153670000D03*
%TD*%
%TO.P,HOLE4,1*%
%TO.N,N/C*%
X201930000Y-59690000D03*
%TD*%
%TO.P,HOLE3,1*%
%TO.N,N/C*%
X201930000Y-153670000D03*
%TD*%
D22*
%TO.N,N-000001*%
X115925000Y-75369300D03*
%TO.N,N-0000027*%
X121032700Y-81340500D03*
%TO.N,N-0000060*%
X158467400Y-131899800D03*
%TO.N,N-0000061*%
X177030600Y-94834800D03*
%TO.N,N-0000067*%
X155326300Y-81598800D03*
%TO.N,N-0000069*%
X119787200Y-142373900D03*
X107090800Y-148502700D03*
%TO.N,N-0000084*%
X131101100Y-125285600D03*
%TO.N,N-0000091*%
X104301200Y-116848900D03*
%TO.N,VAA*%
X121859200Y-97323100D03*
%TD*%
D23*
%TO.N,-VAA*%
X153670000Y-66040000D02*
X154940000Y-67310000D01*
X154940000Y-67310000D02*
X157480000Y-67310000D01*
X149860000Y-66040000D02*
X153670000Y-66040000D01*
X148590000Y-67310000D02*
X149860000Y-66040000D01*
X167732900Y-132172900D02*
X166370000Y-132172900D01*
X171450000Y-135890000D02*
X167732900Y-132172900D01*
X165192900Y-133350000D02*
X166370000Y-132172900D01*
X164277200Y-133350000D02*
X165192900Y-133350000D01*
X162379900Y-135247300D02*
X164277200Y-133350000D01*
X162379900Y-144531700D02*
X162379900Y-135247300D01*
X159409800Y-147501800D02*
X162379900Y-144531700D01*
X157555300Y-147501800D02*
X159409800Y-147501800D01*
X150117100Y-154940000D02*
X157555300Y-147501800D01*
X148590000Y-154940000D02*
X150117100Y-154940000D01*
X166370000Y-132172900D02*
X166370000Y-130810000D01*
X148590000Y-111760000D02*
X162369700Y-111760000D01*
X166856900Y-116840000D02*
X186690000Y-116840000D01*
X162369700Y-112352800D02*
X166856900Y-116840000D01*
X162369700Y-111760000D02*
X162369700Y-112352800D01*
X166370000Y-87630000D02*
X166762100Y-88022000D01*
X171450000Y-83334100D02*
X171450000Y-78740000D01*
X166762100Y-88022000D02*
X171450000Y-83334100D01*
X170604300Y-91864300D02*
X170604300Y-92710000D01*
X166762100Y-88022000D02*
X170604300Y-91864300D01*
X168554000Y-94760300D02*
X170604300Y-92710000D01*
X168554000Y-104908500D02*
X168554000Y-94760300D01*
X162369700Y-111092800D02*
X168554000Y-104908500D01*
X162369700Y-111760000D02*
X162369700Y-111092800D01*
X170604300Y-92710000D02*
X171450000Y-92710000D01*
X189515300Y-68580000D02*
X196850000Y-68580000D01*
X183355500Y-74739800D02*
X189515300Y-68580000D01*
X175069800Y-74739800D02*
X183355500Y-74739800D01*
X171450000Y-71120000D02*
X175069800Y-74739800D01*
X148590000Y-67310000D02*
X148590000Y-69850000D01*
X106680000Y-63420600D02*
X106680000Y-64770000D01*
X104370900Y-63420600D02*
X106680000Y-63420600D01*
X102086300Y-61136000D02*
X104370900Y-63420600D01*
X97790000Y-61136000D02*
X102086300Y-61136000D01*
X97790000Y-62309100D02*
X97790000Y-61136000D01*
X96789200Y-63309900D02*
X97790000Y-62309100D01*
X93303300Y-63309900D02*
X96789200Y-63309900D01*
X91128300Y-61134900D02*
X93303300Y-63309900D01*
X78487600Y-61134900D02*
X91128300Y-61134900D01*
X73660000Y-65962500D02*
X78487600Y-61134900D01*
X73660000Y-72390000D02*
X73660000Y-65962500D01*
X97790000Y-61136000D02*
X97790000Y-60960000D01*
X66214700Y-126819400D02*
X72745300Y-133350000D01*
X66214700Y-113270700D02*
X66214700Y-126819400D01*
X74075100Y-105410300D02*
X66214700Y-113270700D01*
X74930000Y-105410300D02*
X74075100Y-105410300D01*
X74930000Y-102870000D02*
X74930000Y-105410300D01*
X74930000Y-133350000D02*
X72745300Y-133350000D01*
X107870600Y-62230000D02*
X106680000Y-63420600D01*
X112246700Y-62230000D02*
X107870600Y-62230000D01*
X114642400Y-59834300D02*
X112246700Y-62230000D01*
X129204800Y-59834300D02*
X114642400Y-59834300D01*
X133864800Y-64494300D02*
X129204800Y-59834300D01*
X133864800Y-64802100D02*
X133864800Y-64494300D01*
X141274100Y-72211400D02*
X133864800Y-64802100D01*
X147588200Y-72211400D02*
X141274100Y-72211400D01*
X148590000Y-71209600D02*
X147588200Y-72211400D01*
X148590000Y-69850000D02*
X148590000Y-71209600D01*
%TO.N,GND*%
X162560000Y-74930000D02*
X158750000Y-78740000D01*
X166370000Y-74930000D02*
X162560000Y-74930000D01*
X190690200Y-76200000D02*
X195770200Y-71120000D01*
X187960000Y-76200000D02*
X190690200Y-76200000D01*
X196850000Y-71120000D02*
X195770200Y-71120000D01*
X180695300Y-120650000D02*
X176530000Y-120650000D01*
X184505300Y-124460000D02*
X180695300Y-120650000D01*
X186690000Y-124460000D02*
X184505300Y-124460000D01*
X157303900Y-119556100D02*
X154940000Y-121920000D01*
X171626100Y-119556100D02*
X157303900Y-119556100D01*
X172720000Y-120650000D02*
X171626100Y-119556100D01*
X191591600Y-101296000D02*
X184937600Y-107950000D01*
X191591600Y-96341600D02*
X191591600Y-101296000D01*
X182880000Y-87630000D02*
X191591600Y-96341600D01*
X184937600Y-107950000D02*
X182880000Y-107950000D01*
X199494100Y-118110000D02*
X203200000Y-118110000D01*
X195671200Y-114287100D02*
X199494100Y-118110000D01*
X189230000Y-114287100D02*
X195671200Y-114287100D01*
X189230000Y-116840000D02*
X189230000Y-114287100D01*
X189230000Y-112242400D02*
X184937600Y-107950000D01*
X189230000Y-114287100D02*
X189230000Y-112242400D01*
X107950000Y-74143900D02*
X107950000Y-76200000D01*
X102386100Y-68580000D02*
X107950000Y-74143900D01*
X100330000Y-68580000D02*
X102386100Y-68580000D01*
X107950000Y-124460000D02*
X107950000Y-125730100D01*
X107950000Y-125730100D02*
X107950000Y-127000300D01*
X115396000Y-132254000D02*
X113030000Y-134620000D01*
X115396000Y-126040300D02*
X115396000Y-132254000D01*
X113935100Y-124579400D02*
X115396000Y-126040300D01*
X109100700Y-124579400D02*
X113935100Y-124579400D01*
X107950000Y-125730100D02*
X109100700Y-124579400D01*
X147129800Y-81280000D02*
X145859800Y-82550000D01*
X148590000Y-81280000D02*
X147129800Y-81280000D01*
X143510000Y-82550000D02*
X145859800Y-82550000D01*
X64770000Y-140970000D02*
X63500000Y-142240000D01*
X74930000Y-140970000D02*
X64770000Y-140970000D01*
X80010000Y-133350000D02*
X80010000Y-130809700D01*
X85577000Y-130809700D02*
X80010000Y-130809700D01*
X86726700Y-129660000D02*
X85577000Y-130809700D01*
X92811800Y-129660000D02*
X86726700Y-129660000D01*
X95471500Y-127000300D02*
X92811800Y-129660000D01*
X107950000Y-127000300D02*
X95471500Y-127000300D01*
X96551700Y-134651700D02*
X102870000Y-140970000D01*
X94339100Y-134651700D02*
X96551700Y-134651700D01*
X92811800Y-133124400D02*
X94339100Y-134651700D01*
X92811800Y-129660000D02*
X92811800Y-133124400D01*
X80010000Y-129948200D02*
X80010000Y-130809700D01*
X75791800Y-125730000D02*
X80010000Y-129948200D01*
X74099200Y-125730000D02*
X75791800Y-125730000D01*
X72580100Y-124210900D02*
X74099200Y-125730000D01*
X72580100Y-120840100D02*
X72580100Y-124210900D01*
X71120000Y-119380000D02*
X72580100Y-120840100D01*
D24*
%TO.N,N-000001*%
X133350000Y-76200000D02*
X133350000Y-73913700D01*
X124706800Y-75369300D02*
X115925000Y-75369300D01*
X126162400Y-73913700D02*
X124706800Y-75369300D01*
X133350000Y-73913700D02*
X126162400Y-73913700D01*
%TO.N,N-0000010*%
X104140000Y-113030000D02*
X109220000Y-113030000D01*
D23*
%TO.N,N-00000101*%
X189230000Y-60960000D02*
X193040000Y-60960000D01*
X200660000Y-68580000D02*
X203200000Y-68580000D01*
X193040000Y-60960000D02*
X200660000Y-68580000D01*
X181610000Y-72390000D02*
X181610000Y-69215000D01*
X189230000Y-61595000D02*
X189230000Y-60960000D01*
X181610000Y-69215000D02*
X189230000Y-61595000D01*
%TO.N,N-00000102*%
X177800000Y-64770000D02*
X177800000Y-58420000D01*
%TO.N,N-00000104*%
X203200000Y-85090000D02*
X199390000Y-85090000D01*
X195580000Y-81280000D02*
X187960000Y-81280000D01*
X199390000Y-85090000D02*
X195580000Y-81280000D01*
D24*
%TO.N,N-00000107*%
X77470000Y-144780000D02*
X77470000Y-140970000D01*
X76200000Y-146050000D02*
X77470000Y-144780000D01*
%TO.N,N-00000108*%
X77216300Y-135890000D02*
X77470000Y-135636300D01*
X71120000Y-135890000D02*
X77216300Y-135890000D01*
X77470000Y-133350000D02*
X77470000Y-135636300D01*
%TO.N,N-0000011*%
X137160000Y-107950000D02*
X140970000Y-107950000D01*
X134620000Y-105410000D02*
X137160000Y-107950000D01*
X140970000Y-107950000D02*
X149860000Y-107950000D01*
X100330000Y-87630000D02*
X100330000Y-89916300D01*
X103981200Y-95408800D02*
X103981200Y-93567500D01*
X102870000Y-96520000D02*
X103981200Y-95408800D01*
X103981200Y-93567500D02*
X100330000Y-89916300D01*
X120249700Y-93567500D02*
X125535700Y-88281500D01*
X103981200Y-93567500D02*
X120249700Y-93567500D01*
X125730000Y-88087200D02*
X125730000Y-87630000D01*
X125535700Y-88281500D02*
X125730000Y-88087200D01*
X134185700Y-101600000D02*
X134620000Y-101600000D01*
X130702300Y-98116600D02*
X134185700Y-101600000D01*
X130702300Y-93448100D02*
X130702300Y-98116600D01*
X125535700Y-88281500D02*
X130702300Y-93448100D01*
%TO.N,N-0000012*%
X97345800Y-113030000D02*
X94805800Y-110490000D01*
X100330000Y-113030000D02*
X97345800Y-113030000D01*
X92710000Y-110490000D02*
X94805800Y-110490000D01*
%TO.N,N-0000013*%
X109220000Y-99897000D02*
X109220000Y-102870000D01*
X113866500Y-95250500D02*
X109220000Y-99897000D01*
X120968000Y-95250500D02*
X113866500Y-95250500D01*
X124778500Y-91440000D02*
X120968000Y-95250500D01*
X125730000Y-91440000D02*
X124778500Y-91440000D01*
%TO.N,N-0000014*%
X104383800Y-109463800D02*
X109220000Y-109463800D01*
X100330000Y-105410000D02*
X104383800Y-109463800D01*
X113333700Y-105350100D02*
X109220000Y-109463800D01*
X123249900Y-105350100D02*
X113333700Y-105350100D01*
X125730000Y-102870000D02*
X123249900Y-105350100D01*
X109220000Y-109463800D02*
X109220000Y-110490000D01*
%TO.N,N-0000015*%
X111760000Y-100330000D02*
X111760000Y-102870000D01*
X114300000Y-97790000D02*
X111760000Y-100330000D01*
%TO.N,N-0000017*%
X176530000Y-131254200D02*
X176530000Y-125730000D01*
X173990000Y-133794200D02*
X176530000Y-131254200D01*
X173990000Y-135890000D02*
X173990000Y-133794200D01*
%TO.N,N-0000018*%
X165100000Y-143510000D02*
X171450000Y-143510000D01*
%TO.N,N-0000021*%
X171450000Y-146050000D02*
X182880000Y-146050000D01*
%TO.N,N-0000027*%
X135890000Y-83820000D02*
X135890000Y-81533700D01*
X121225900Y-81533700D02*
X135890000Y-81533700D01*
X121032700Y-81340500D02*
X121225900Y-81533700D01*
%TO.N,N-0000030*%
X158750000Y-91440000D02*
X158750000Y-82550000D01*
X157480000Y-92710000D02*
X158750000Y-91440000D01*
%TO.N,N-0000031*%
X195580000Y-111760000D02*
X199390000Y-107950000D01*
%TO.N,N-0000034*%
X181610000Y-127789400D02*
X181610000Y-128270000D01*
X177414400Y-123593800D02*
X181610000Y-127789400D01*
X168082100Y-123593800D02*
X177414400Y-123593800D01*
X162961800Y-128714100D02*
X168082100Y-123593800D01*
X156260500Y-128714100D02*
X162961800Y-128714100D01*
X151412500Y-133562100D02*
X156260500Y-128714100D01*
X139063800Y-133562100D02*
X151412500Y-133562100D01*
X132385300Y-140240600D02*
X139063800Y-133562100D01*
X132385300Y-142384000D02*
X132385300Y-140240600D01*
X118952200Y-155817100D02*
X132385300Y-142384000D01*
X73861400Y-155817100D02*
X118952200Y-155817100D01*
X59552800Y-141508500D02*
X73861400Y-155817100D01*
X59552800Y-101594300D02*
X59552800Y-141508500D01*
X71402000Y-89745100D02*
X59552800Y-101594300D01*
X77894900Y-89745100D02*
X71402000Y-89745100D01*
X83820000Y-83820000D02*
X77894900Y-89745100D01*
%TO.N,N-0000037*%
X67919300Y-76200000D02*
X63500000Y-76200000D01*
X71729300Y-80010000D02*
X67919300Y-76200000D01*
X73660000Y-80010000D02*
X71729300Y-80010000D01*
%TO.N,N-0000038*%
X69245100Y-71120000D02*
X63500000Y-71120000D01*
X72801400Y-74676300D02*
X69245100Y-71120000D01*
X78740000Y-74676300D02*
X72801400Y-74676300D01*
X78740000Y-72390000D02*
X78740000Y-74676300D01*
%TO.N,N-0000043*%
X118905800Y-83345800D02*
X119380000Y-83820000D01*
X118905800Y-80502900D02*
X118905800Y-83345800D01*
X120164100Y-79244600D02*
X118905800Y-80502900D01*
X135994100Y-79244600D02*
X120164100Y-79244600D01*
X140776400Y-84026900D02*
X135994100Y-79244600D01*
X140776400Y-85366100D02*
X140776400Y-84026900D01*
X142597700Y-87187400D02*
X140776400Y-85366100D01*
X147762600Y-87187400D02*
X142597700Y-87187400D01*
X148590000Y-86360000D02*
X147762600Y-87187400D01*
%TO.N,N-0000048*%
X128270000Y-76200000D02*
X126339300Y-76200000D01*
X102870000Y-87630000D02*
X102870000Y-85343700D01*
X124946000Y-77593300D02*
X126339300Y-76200000D01*
X114367200Y-77593300D02*
X124946000Y-77593300D01*
X106616800Y-85343700D02*
X114367200Y-77593300D01*
X102870000Y-85343700D02*
X106616800Y-85343700D01*
%TO.N,N-000005*%
X143882000Y-101972000D02*
X140970000Y-99060000D01*
X155312000Y-101972000D02*
X143882000Y-101972000D01*
X157480000Y-104140000D02*
X155312000Y-101972000D01*
%TO.N,N-0000054*%
X180340000Y-102870000D02*
X182880000Y-100330000D01*
X171450000Y-102870000D02*
X180340000Y-102870000D01*
%TO.N,N-0000059*%
X152400000Y-72390000D02*
X149860000Y-74930000D01*
X152400000Y-68580000D02*
X152400000Y-72390000D01*
%TO.N,N-0000060*%
X147320000Y-62230000D02*
X151130000Y-62230000D01*
X142240000Y-62230000D02*
X147320000Y-62230000D01*
X151130000Y-62230000D02*
X152400000Y-60960000D01*
X155863900Y-131899800D02*
X158467400Y-131899800D01*
X148590000Y-139173700D02*
X155863900Y-131899800D01*
X148590000Y-139700000D02*
X148590000Y-139173700D01*
%TO.N,N-0000061*%
X176530000Y-94334200D02*
X177030600Y-94834800D01*
X176530000Y-80856000D02*
X176530000Y-94334200D01*
X169313900Y-73639900D02*
X176530000Y-80856000D01*
X169313900Y-70283400D02*
X169313900Y-73639900D01*
X171017300Y-68580000D02*
X169313900Y-70283400D01*
X171450000Y-68580000D02*
X171017300Y-68580000D01*
%TO.N,N-0000062*%
X159597000Y-63077000D02*
X157480000Y-60960000D01*
X159597000Y-70273000D02*
X159597000Y-63077000D01*
X158750000Y-71120000D02*
X159597000Y-70273000D01*
%TO.N,N-0000064*%
X111760000Y-68580000D02*
X115570000Y-72390000D01*
X110490000Y-68580000D02*
X111760000Y-68580000D01*
X104692500Y-66436900D02*
X97377800Y-66436900D01*
X105565600Y-67310000D02*
X104692500Y-66436900D01*
X106680000Y-67310000D02*
X105565600Y-67310000D01*
X96980900Y-66040000D02*
X97377800Y-66436900D01*
X92710000Y-66040000D02*
X96980900Y-66040000D01*
X97377800Y-82381600D02*
X97377800Y-66436900D01*
X92716200Y-87043200D02*
X97377800Y-82381600D01*
X92716200Y-96275800D02*
X92716200Y-87043200D01*
X81155300Y-107836700D02*
X92716200Y-96275800D01*
X74445500Y-107836700D02*
X81155300Y-107836700D01*
X72720700Y-109561500D02*
X74445500Y-107836700D01*
X72720700Y-113126700D02*
X72720700Y-109561500D01*
X68987900Y-116859500D02*
X72720700Y-113126700D01*
X68987900Y-122327900D02*
X68987900Y-116859500D01*
X69850000Y-123190000D02*
X68987900Y-122327900D01*
%TO.N,N-0000067*%
X139700000Y-67310000D02*
X139700000Y-58420000D01*
X142240000Y-69850000D02*
X139700000Y-67310000D01*
X155326300Y-81217000D02*
X155326300Y-81598800D01*
X151135200Y-77025900D02*
X155326300Y-81217000D01*
X146241200Y-77025900D02*
X151135200Y-77025900D01*
X144145300Y-74930000D02*
X146241200Y-77025900D01*
X142240000Y-74930000D02*
X144145300Y-74930000D01*
X162560000Y-67310000D02*
X166370000Y-71120000D01*
%TO.N,N-0000069*%
X108695900Y-143510000D02*
X109220000Y-143510000D01*
X107090800Y-145115100D02*
X108695900Y-143510000D01*
X107090800Y-148502700D02*
X107090800Y-145115100D01*
X125730000Y-136431100D02*
X119787200Y-142373900D01*
X125730000Y-135890000D02*
X125730000Y-136431100D01*
%TO.N,N-0000074*%
X113315300Y-146050000D02*
X125730000Y-146050000D01*
X109220000Y-150145300D02*
X113315300Y-146050000D01*
X109220000Y-151130000D02*
X109220000Y-150145300D01*
%TO.N,N-0000076*%
X100330000Y-118110000D02*
X102870000Y-120650000D01*
X86360000Y-118110000D02*
X100330000Y-118110000D01*
%TO.N,N-0000077*%
X109880700Y-130149300D02*
X109880700Y-132080000D01*
X113030000Y-127000000D02*
X109880700Y-130149300D01*
X107950000Y-132080000D02*
X109880700Y-132080000D01*
%TO.N,N-0000082*%
X133350000Y-120650000D02*
X133350000Y-122936300D01*
X105410000Y-120216500D02*
X105410000Y-124460000D01*
X107101900Y-118524600D02*
X105410000Y-120216500D01*
X109417100Y-118524600D02*
X107101900Y-118524600D01*
X111652500Y-120760000D02*
X109417100Y-118524600D01*
X117875300Y-120760000D02*
X111652500Y-120760000D01*
X120051600Y-122936300D02*
X117875300Y-120760000D01*
X133350000Y-122936300D02*
X120051600Y-122936300D01*
%TO.N,N-0000084*%
X122364400Y-125285600D02*
X131101100Y-125285600D01*
X120650000Y-127000000D02*
X122364400Y-125285600D01*
%TO.N,N-000009*%
X138239100Y-96964100D02*
X135890000Y-94615000D01*
X153271500Y-96964100D02*
X138239100Y-96964100D01*
X159626800Y-103319400D02*
X153271500Y-96964100D01*
X159626800Y-105803200D02*
X159626800Y-103319400D01*
X157480000Y-107950000D02*
X159626800Y-105803200D01*
%TO.N,N-0000090*%
X61236500Y-134896500D02*
X63500000Y-137160000D01*
X61236500Y-110777800D02*
X61236500Y-134896500D01*
X62755500Y-109258800D02*
X61236500Y-110777800D01*
X64274600Y-109258800D02*
X62755500Y-109258800D01*
X66484100Y-107049300D02*
X64274600Y-109258800D01*
X66484100Y-105806900D02*
X66484100Y-107049300D01*
X71707300Y-100583700D02*
X66484100Y-105806900D01*
X77470000Y-100583700D02*
X71707300Y-100583700D01*
X77470000Y-102870000D02*
X77470000Y-100583700D01*
%TO.N,N-0000091*%
X135890000Y-128270000D02*
X137820700Y-128270000D01*
X137820700Y-128270000D02*
X140360700Y-125730000D01*
X142240000Y-125730000D02*
X140360700Y-125730000D01*
X115601300Y-116848900D02*
X104301200Y-116848900D01*
X117074900Y-118322500D02*
X115601300Y-116848900D01*
X137139900Y-118322500D02*
X117074900Y-118322500D01*
X138633700Y-119816300D02*
X137139900Y-118322500D01*
X138633700Y-124003000D02*
X138633700Y-119816300D01*
X140360700Y-125730000D02*
X138633700Y-124003000D01*
%TO.N,N-0000095*%
X140970000Y-151130000D02*
X134620000Y-151130000D01*
X148590000Y-149860000D02*
X148590000Y-143510000D01*
X149860000Y-151130000D02*
X148590000Y-149860000D01*
X100330000Y-132080000D02*
X100330000Y-134366300D01*
X102996900Y-137033100D02*
X100330000Y-134366300D01*
X102996900Y-137033100D02*
X102870000Y-137160000D01*
X103705200Y-136324800D02*
X102996900Y-137033100D01*
X109187700Y-136324800D02*
X103705200Y-136324800D01*
X113421400Y-140558500D02*
X109187700Y-136324800D01*
X116612000Y-140558500D02*
X113421400Y-140558500D01*
X118948200Y-138222300D02*
X116612000Y-140558500D01*
X120035600Y-138222300D02*
X118948200Y-138222300D01*
X125730000Y-132527900D02*
X120035600Y-138222300D01*
X125730000Y-132080000D02*
X125730000Y-132527900D01*
D23*
%TO.N,VAA*%
X82550000Y-140970000D02*
X84734700Y-140970000D01*
X103479600Y-145389600D02*
X103479600Y-143753600D01*
X104140000Y-146050000D02*
X103479600Y-145389600D01*
X103098800Y-143372800D02*
X103479600Y-143753600D01*
X87137500Y-143372800D02*
X103098800Y-143372800D01*
X84734700Y-140970000D02*
X87137500Y-143372800D01*
X106680000Y-140553200D02*
X106680000Y-138430000D01*
X103479600Y-143753600D02*
X106680000Y-140553200D01*
X123190000Y-68580000D02*
X124460000Y-69850000D01*
X118110000Y-68580000D02*
X123190000Y-68580000D01*
X82550000Y-110490000D02*
X84734700Y-110490000D01*
X109220000Y-105410000D02*
X104140000Y-105410000D01*
X87464800Y-107759900D02*
X84734700Y-110490000D01*
X96250000Y-107759900D02*
X87464800Y-107759900D01*
X97790000Y-106219900D02*
X96250000Y-107759900D01*
X97790000Y-104571600D02*
X97790000Y-106219900D01*
X99301500Y-103060100D02*
X97790000Y-104571600D01*
X101790100Y-103060100D02*
X99301500Y-103060100D01*
X104140000Y-105410000D02*
X101790100Y-103060100D01*
X121859200Y-97850800D02*
X121859200Y-97323100D01*
X116840000Y-102870000D02*
X121859200Y-97850800D01*
%TD*%
M02*
